<?xml version="1.0" encoding="utf-8"?>
<!-- Generator: Adobe Illustrator 19.2.1, SVG Export Plug-In . SVG Version: 6.00 Build 0)  -->
<svg version="1.1" id="layer" xmlns="http://www.w3.org/2000/svg" xmlns:xlink="http://www.w3.org/1999/xlink" x="0px" y="0px"
	 viewBox="0 0 652 652" style="enable-background:new 0 0 652 652;" xml:space="preserve">
<style type="text/css">
	.st0{fill:#003781;}
</style>
<path id="Fill-3" class="st0" d="M74.9,288.2H54.5l10.8-36.8L74.9,288.2z M43.8,327.8l6.8-23.8h27.7l6.8,23.8h25.5l-25.5-91.1
	c-1.7-5.1-4.5-7.9-10.8-7.9H38.7v8.5h2.8c4,0,6.2,1.7,6.2,4.5c0,1.7-0.6,2.8-2.3,7.9L20,327.8H43.8z M140,327.8v-91.1
	c0-5.1-2.8-7.9-7.4-7.9h-22.1v8.5h0.6c4.5,0,6.2,1.7,6.2,5.1v84.9H140V327.8z M179.1,327.8v-91.1c0-5.1-2.8-7.9-7.4-7.9h-22.6v8.5
	h1.1c4,0,5.1,1.7,5.1,5.1v84.9h23.8V327.8z M218.7,237.8c0-6.2-4.5-10.2-13.6-10.2c-7.4,0-12.5,4-12.5,10.2
	c0,6.8,5.1,10.8,12.5,10.8C214.2,248.5,218.7,244.6,218.7,237.8L218.7,237.8z M217.5,327.8v-66.2c0-4.5-2.3-7.9-6.8-7.9h-22.6v8.5
	h1.7c4,0,5.1,1.7,5.1,5.1v60.6H217.5z M267.9,292.1v14.7c-4,4.5-8.5,6.8-11.9,6.8c-4.5,0-6.2-2.3-6.2-7.9s1.7-8.5,5.1-10.2
	C258.3,294.4,261.7,293.3,267.9,292.1L267.9,292.1z M237.4,275.2c7.4-4,15.8-6.2,22.6-6.2c6.2,0,8.5,2.3,8.5,9.1v1.7
	c-9.1,1.7-11.9,2.3-17,2.8c-2.8,0.6-6.2,1.7-9.1,2.8c-9.1,4-13.6,10.8-13.6,22.1c0,13.6,6.2,20.4,18.7,20.4c4.5,0,8.5-0.6,11.9-2.3
	c2.8-1.7,5.1-2.8,9.6-6.2v1.7c0,4.5,2.3,6.8,6.8,6.8h20.9v-7.9h-1.7c-4,0-5.1-2.3-5.1-6.8V278c0-19.2-6.2-25.5-24.9-25.5
	c-6.2,0-11.9,0.6-17,1.7c-6.2,1.7-9.1,2.8-15.8,6.2L237.4,275.2z M329.6,327.8v-50.4c4-4,7.4-6.2,11.9-6.2c5.1,0,6.2,2.3,6.2,10.2
	v46.4h23.2v-50.4c0-11.3-1.7-15.3-4.5-19.2c-4-4-8.5-5.1-14.7-5.1c-9.1,0-14.7,2.8-23.2,10.8v-3.4c0-4.5-2.3-6.8-6.8-6.8h-21.5v8.5
	h1.7c4,0,5.1,1.7,5.1,5.1v60.6H329.6z M437.2,312.5h-31.7l30-43.6v-15.3h-47c-5.1,0-7.4,2.3-7.4,8.5v13h8.5v-1.7
	c0-2.8,1.7-4.5,5.1-4.5h16.4l-30.6,43.6v15.3h57.2v-15.3H437.2z M556.6,326.1v-83.8c0-6.8-2.3-9.1-8.5-9.1h-19.2v10.2h0.6
	c4.5,0,5.1,0.6,5.1,6.2v77h22.1V326.1z M566.2,326.1h20.9v-65.7c0-6.2-2.3-8.5-8.5-8.5h-12.5V326.1z M525.5,326.1v-74.2H513
	c-6.2,0-9.1,2.3-9.1,8.5v65.7C504,326.1,525.5,326.1,525.5,326.1z M607.5,283.6c0,36.8-26,63.4-61.7,63.4
	c-36.2,0-62.3-26.6-62.3-63.4s26-64.5,62.3-64.5C580.9,219.1,607.5,246.8,607.5,283.6L607.5,283.6z M620,283.6
	c0-43.6-31.7-75.8-74.2-75.8s-74.7,32.3-74.7,75.8s32.3,75.8,74.7,75.8S620,327.2,620,283.6L620,283.6z M46,433.6
	c-16.4,0-24.9-10.8-24.9-28.3c0-5.1,0-12.5,4-18.1c4.5-7.9,11.9-12.5,23.2-12.5c9.6,0,14.7,4,14.7,4v7.9c0,0-4.5-5.1-14.7-5.1
	c-14.2,0-19.2,11.3-19.2,23.8c0,15.3,6.2,23.2,18.1,23.2c5.1,0,8.5-1.7,8.5-1.7v-18.1h8.5v21.5C63.6,429.1,57.9,433.6,46,433.6z
	 M73.8,433.6v-62.8l8.5-0.6v63.4C82.3,433.6,73.8,433.6,73.8,433.6z M108.3,434.2c-10.8,0-17-7.9-17-21.5s6.2-23.2,18.1-23.2
	c10.8,0,17,7.9,17,21.5C126.4,425.2,120.2,434.2,108.3,434.2z M108.3,395.7c-6.8,0-9.6,5.1-9.6,15.8c0,9.1,2.3,15.8,9.6,15.8
	s10.8-5.1,10.8-15.8C119.1,403.1,116.8,395.7,108.3,395.7z M151.9,433.6c-6.8,0-9.6-2.8-9.6-2.8l-6.8,2.8v-62.8l7.4-0.6v25.5
	c0,0,2.8-5.1,10.8-5.1c11.3,0,15.8,9.1,15.8,20.4C168.9,429.7,159.8,433.6,151.9,433.6z M151.9,395.7c-5.1,0-9.1,2.8-9.1,8.5v20.4
	c0,0,2.3,2.8,7.4,2.8c7.4,0,11.3-5.1,11.3-15.8C161.5,400.8,157.5,395.7,151.9,395.7z M198.3,433.6v-5.1c0,0-2.3,5.1-10.8,5.1
	c-9.1,0-11.9-6.2-11.9-12.5c0-13,10.8-13.6,18.1-13.6l4.5-0.6v-2.8c0-2.8,0-7.9-8.5-7.9c-6.8,0-10.8,4-10.8,4v-6.8
	c0,0,4-2.8,12.5-2.8c12.5,0,13.6,8.5,13.6,13.6v28.9L198.3,433.6z M198.3,412.1l-4.5,0.6c-6.2,0-10.8,1.7-10.8,7.9
	c0,2.8,1.7,6.8,6.8,6.8s8.5-2.8,8.5-7.9C198.3,419.5,198.3,412.1,198.3,412.1z M217,433.6v-62.8l7.4-0.6v63.4
	C224.3,433.6,217,433.6,217,433.6z M253.2,433.6v-58.3h8.5v58.3H253.2z M297.9,433.6v-26c0-4.5,0-10.8-9.1-10.8
	c-4,0-8.5,1.7-8.5,7.9v28.9h-8.5v-43h7.4v5.1c0,0,2.8-6.2,11.9-6.2c4.5,0,7.4,1.7,9.6,2.8c4,4,4,9.1,4,13v27.7h-6.8V433.6z
	 M332.5,433.6h-7.4l-14.2-43h8.5l8.5,27.7c1.7,4,1.7,7.9,1.7,7.9s0.6-2.8,2.3-7.9l9.1-27.7h6.8L332.5,433.6z M357.9,412.7
	c0,8.5,2.3,15.3,12.5,15.3c7.4,0,11.3-4.5,11.3-4.5l-0.6,6.8c0,0-2.8,2.8-12.5,2.8c-8.5,0-18.1-2.8-18.1-21.5c0-13,5.1-22.1,17-22.1
	c14.2,0,15.8,12.5,15.8,21.5v1.7H357.9z M367.5,395.2c-9.1,0-9.6,8.5-9.6,12.5H376C376,401.4,374.9,395.2,367.5,395.2z M401.5,433.6
	c-7.4,0-11.3-2.8-11.3-2.8l-0.6-6.8c0,0,4.5,4.5,11.9,4.5c4.5,0,7.4-1.7,7.4-5.1c0-4-1.7-4.5-5.1-6.8l-4.5-2.8
	c-4-2.3-8.5-5.1-8.5-12.5c0-10.2,8.5-11.3,12.5-11.3c7.4,0,10.8,2.8,10.8,2.8v6.8c0,0-4-4-9.6-4c-6.2,0-6.8,2.8-6.8,4.5
	c0,4,2.3,4.5,5.1,6.8l4.5,2.3c4.5,2.3,8.5,5.1,8.5,11.3C415.7,431.9,407.2,433.6,401.5,433.6z M442.3,431.9c0,0-2.3,1.7-6.8,1.7
	c-2.8,0-6.2-0.6-8.5-4c-1.7-2.3-2.3-5.1-2.3-9.1v-24.3h-4v-5.1h4v-7.9l7.4-1.7v9.1h10.8v5.1h-10.8v24.3c0,2.3,0.6,4.5,1.7,5.1
	c0.6,1.7,1.7,2.3,4,2.3c4,0,5.1-2.3,5.1-2.3L442.3,431.9z M465.5,434.2c-10.8,0-17-7.9-17-21.5s5.1-23.2,18.1-23.2
	c10.8,0,17,7.9,17,21.5C483.6,425.2,477.9,434.2,465.5,434.2z M465.5,395.7c-6.8,0-9.6,5.1-9.6,15.8c0,9.1,2.3,15.8,9.6,15.8
	c6.8,0,9.6-5.1,9.6-15.8C475.7,403.1,473.4,395.7,465.5,395.7z M513.6,398c0,0-1.7-1.7-6.2-1.7c-5.1,0-7.4,4.5-7.4,9.1v27.7h-7.4
	v-43h7.4v6.2c0,0,2.3-6.8,9.1-6.8c4,0,5.1,1.7,5.1,1.7L513.6,398z M530,433.6c-8.5,0-11.9-2.8-11.9-2.8V424c0,0,4,4.5,11.3,4.5
	c4.5,0,7.4-1.7,7.4-5.1c0-4-0.6-4.5-5.1-6.8l-4.5-2.3c-4-2.3-8.5-5.1-8.5-12.5c0-10.2,8.5-11.3,13.6-11.3c6.8,0,9.6,2.8,9.6,2.8v6.8
	c0,0-4-4-9.6-4c-6.2,0-6.8,2.8-6.8,4.5c0,4,2.3,4.5,6.2,6.8l4.5,2.3c4,2.3,8.5,5.1,8.5,11.3C544.2,431.9,536.2,433.6,530,433.6z"/>
</svg>
