<svg xmlns="http://www.w3.org/2000/svg" width="66.586" height="63.188" viewBox="0 0 66.586 63.188">
  <g id="Gruppe_43" data-name="Gruppe 43" transform="translate(-112.645 -106.619)">
    <rect id="Rechteck_16" data-name="Rechteck 16" width="10.634" height="34.555" transform="translate(168.38 119.904) rotate(34.482)" fill="none" stroke="#28a5bc" stroke-linecap="round" stroke-linejoin="round" stroke-width="3"/>
    <line id="Linie_10" data-name="Linie 10" x2="8.486" y2="5.52" transform="translate(164.961 125.789)" fill="none" stroke="#28a5bc" stroke-miterlimit="10" stroke-width="3"/>
    <path id="Pfad_112" data-name="Pfad 112" d="M157.582,135.626V108.119H114.145v60.188h43.437v-13.9l-10.306,5.064,1.541-11.084" fill="none" stroke="#28a5bc" stroke-linecap="round" stroke-linejoin="round" stroke-width="3"/>
    <line id="Linie_11" data-name="Linie 11" x2="8.945" transform="translate(120.55 116.678)" fill="none" stroke="#28a5bc" stroke-linecap="round" stroke-linejoin="round" stroke-width="3"/>
    <line id="Linie_12" data-name="Linie 12" x2="15.645" transform="translate(120.661 124.353)" fill="none" stroke="#28a5bc" stroke-linecap="round" stroke-linejoin="round" stroke-width="3"/>
    <line id="Linie_13" data-name="Linie 13" x2="8.945" transform="translate(141.487 124.353)" fill="none" stroke="#28a5bc" stroke-linecap="round" stroke-linejoin="round" stroke-width="3"/>
    <line id="Linie_14" data-name="Linie 14" x2="15.645" transform="translate(134.788 116.678)" fill="none" stroke="#28a5bc" stroke-linecap="round" stroke-linejoin="round" stroke-width="3"/>
    <line id="Linie_15" data-name="Linie 15" x2="8.945" transform="translate(120.605 132.029)" fill="none" stroke="#28a5bc" stroke-linecap="round" stroke-linejoin="round" stroke-width="3"/>
    <line id="Linie_16" data-name="Linie 16" x2="15.645" transform="translate(134.843 132.029)" fill="none" stroke="#28a5bc" stroke-linecap="round" stroke-linejoin="round" stroke-width="3"/>
    <line id="Linie_17" data-name="Linie 17" x2="29.772" transform="translate(120.661 139.704)" fill="none" stroke="#28a5bc" stroke-linecap="round" stroke-linejoin="round" stroke-width="3"/>
    <line id="Linie_18" data-name="Linie 18" x2="28.849" transform="translate(120.661 147.379)" fill="none" stroke="#28a5bc" stroke-linecap="round" stroke-linejoin="round" stroke-width="3"/>
    <path id="Pfad_113" data-name="Pfad 113" d="M171.7,303.071a7.674,7.674,0,0,1,.272-2.305,8.872,8.872,0,0,1,4.165-5.094,8.251,8.251,0,0,0,.221,6.405,6.289,6.289,0,0,0,.663.994,2.923,2.923,0,0,1,2.148-3.289,2.865,2.865,0,0,1,2.932,1.3,2.364,2.364,0,0,0,2.355.96,2.313,2.313,0,0,0,1.373-1.291,4.022,4.022,0,0,0,0-3.313" transform="translate(-43.215 -140.838)" fill="none" stroke="#28a5bc" stroke-linecap="round" stroke-linejoin="round" stroke-width="3"/>
  </g>
</svg>
