<svg xmlns="http://www.w3.org/2000/svg" width="73.115" height="64.182" viewBox="0 0 73.115 64.182">
  <g id="Gruppe_33" data-name="Gruppe 33" transform="translate(-161.482 -456.93)">
    <path id="Pfad_92" data-name="Pfad 92" d="M162.989,555.588v9.083s-.219,3.5,3.283,3.5h12.257L200.156,585.9s2.887,2.408,5.3,0c1.561-1.313,1.313-4.6,1.313-4.6v-5.034" transform="translate(0 -67.376)" fill="none" stroke="#fff" stroke-linecap="round" stroke-linejoin="round" stroke-width="3"/>
    <path id="Pfad_93" data-name="Pfad 93" d="M162.989,489.829v-9.083s-.219-3.5,3.283-3.5h12.257l21.627-17.729s2.887-2.408,5.3,0c1.561,1.313,1.313,4.6,1.313,4.6v5.034" fill="none" stroke="#fff" stroke-linecap="round" stroke-linejoin="round" stroke-width="3"/>
    <g id="Gruppe_32" data-name="Gruppe 32" transform="translate(197.114 477.411)">
      <path id="Pfad_94" data-name="Pfad 94" d="M267.448,514.8h2.565L268.2,523.76h9.157l1.818-8.962H281.7l-4.254,21.3h-2.532L276.93,526h-9.157l-2.013,10.1H263.2Z" transform="translate(-263.195 -514.798)" fill="#fff" stroke="#fff" stroke-width="1"/>
      <path id="Pfad_95" data-name="Pfad 95" d="M342.564,514.8h4.254c5.779,0,8.864,3.02,8.864,8.312,0,7.76-4.318,12.988-11.624,12.988h-5.747Zm1.494,19.222c5.585,0,9.027-4.189,9.027-10.748,0-4.058-2.24-6.4-6.364-6.4h-2.045l-3.409,17.144Z" transform="translate(-318.699 -514.798)" fill="#fff" stroke="#fff" stroke-width="1"/>
    </g>
  </g>
</svg>
