<svg xmlns="http://www.w3.org/2000/svg" width="570.65" height="570.65" viewBox="0 0 570.65 570.65">
  <g id="Pfad_524" data-name="Pfad 524" fill="none" opacity="0.75">
    <path d="M285.325,0C442.906,0,570.65,127.744,570.65,285.325S442.906,570.65,285.325,570.65,0,442.906,0,285.325,127.744,0,285.325,0Z" stroke="none"/>
    <path d="M 285.3251953125 149.9999694824219 C 210.7067260742188 149.9999694824219 149.9999694824219 210.7067260742188 149.9999694824219 285.3251953125 C 149.9999694824219 359.9436645507812 210.7067260742188 420.650390625 285.3251953125 420.650390625 C 359.9436645507812 420.650390625 420.650390625 359.9436645507812 420.650390625 285.3251953125 C 420.650390625 210.7067260742188 359.9436645507812 149.9999694824219 285.3251953125 149.9999694824219 M 285.3251953125 0 C 442.9058532714844 0 570.650390625 127.7445373535156 570.650390625 285.3251953125 C 570.650390625 442.9058532714844 442.9058532714844 570.650390625 285.3251953125 570.650390625 C 127.7445373535156 570.650390625 0 442.9058532714844 0 285.3251953125 C 0 127.7445373535156 127.7445373535156 0 285.3251953125 0 Z" stroke="none" fill="#28a5bc"/>
  </g>
</svg>
