<svg xmlns="http://www.w3.org/2000/svg" width="57.74" height="62.322" viewBox="0 0 57.74 62.322">
  <g id="Gruppe_241" data-name="Gruppe 241" transform="translate(-196.433 -303.036)">
    <path id="Pfad_329" data-name="Pfad 329" d="M262.254,318.323l-13.787-13.787h-1.161v12.233a2.7,2.7,0,0,0,2.7,2.7h12.244Z" transform="translate(-15.548)" fill="none" stroke="#28a5bc" stroke-linecap="round" stroke-linejoin="round" stroke-width="3"/>
    <line id="Linie_138" data-name="Linie 138" x2="14.495" transform="translate(218.056 324.176)" fill="none" stroke="#28a5bc" stroke-linecap="round" stroke-linejoin="round" stroke-width="3"/>
    <line id="Linie_139" data-name="Linie 139" x2="20.61" transform="translate(214.998 331.569)" fill="none" stroke="#28a5bc" stroke-linecap="round" stroke-linejoin="round" stroke-width="3"/>
    <path id="Pfad_330" data-name="Pfad 330" d="M203.9,338.847l-5.346,5.322,18.119,11.891" transform="translate(0 -10.942)" fill="none" stroke="#28a5bc" stroke-linecap="round" stroke-linejoin="round" stroke-width="3"/>
    <path id="Pfad_331" data-name="Pfad 331" d="M198.555,346.662v30.01H225.3" transform="translate(0 -13.435)" fill="none" stroke="#28a5bc" stroke-linecap="round" stroke-linejoin="round" stroke-width="3"/>
    <line id="Linie_140" data-name="Linie 140" x1="26.749" y2="26.725" transform="translate(198.555 336.511)" fill="none" stroke="#28a5bc" stroke-linecap="round" stroke-linejoin="round" stroke-width="3"/>
    <path id="Pfad_332" data-name="Pfad 332" d="M263.273,338.847l5.346,5.322L250.5,356.06" transform="translate(-16.566 -10.942)" fill="none" stroke="#28a5bc" stroke-linecap="round" stroke-linejoin="round" stroke-width="3"/>
    <path id="Pfad_333" data-name="Pfad 333" d="M264.578,346.662v30.01H237.829" transform="translate(-12.525 -13.435)" fill="none" stroke="#28a5bc" stroke-linecap="round" stroke-linejoin="round" stroke-width="3"/>
    <path id="Pfad_334" data-name="Pfad 334" d="M203.414,349.851l14.809,9.719,8.63-8.606L253.6,377.688" transform="translate(-1.55 -14.452)" fill="none" stroke="#28a5bc" stroke-linecap="round" stroke-linejoin="round" stroke-width="3"/>
    <path id="Pfad_335" data-name="Pfad 335" d="M227.807,336.511l8.63,8.607,12.773-8.383V318.323l-13.787-13.787H211.114a4.71,4.71,0,0,0-4.71,4.71v27.49l12.773,8.382Z" transform="translate(-2.503)" fill="none" stroke="#28a5bc" stroke-linecap="round" stroke-linejoin="round" stroke-width="3"/>
  </g>
</svg>
