<svg xmlns="http://www.w3.org/2000/svg" width="430.087" height="430.087" viewBox="0 0 430.087 430.087">
  <g id="Pfad_111" data-name="Pfad 111" fill="none" opacity="0.146">
    <path d="M215.043,0C333.809,0,430.087,96.278,430.087,215.043S333.809,430.087,215.043,430.087,0,333.809,0,215.043,96.278,0,215.043,0Z" stroke="none"/>
    <path d="M 215.04345703125 90.00003051757812 C 146.0942993164062 90.00003051757812 90.00003051757812 146.0942993164062 90.00003051757812 215.04345703125 C 90.00003051757812 283.9926147460938 146.0942993164062 340.0868835449219 215.04345703125 340.0868835449219 C 283.9926147460938 340.0868835449219 340.0868835449219 283.9926147460938 340.0868835449219 215.04345703125 C 340.0868835449219 146.0942993164062 283.9926147460938 90.00003051757812 215.04345703125 90.00003051757812 M 215.04345703125 3.0517578125e-05 C 333.8087463378906 3.0517578125e-05 430.0868835449219 96.2783203125 430.0868835449219 215.04345703125 C 430.0868835449219 333.8087463378906 333.8087463378906 430.0868835449219 215.04345703125 430.0868835449219 C 96.2783203125 430.0868835449219 3.0517578125e-05 333.8087463378906 3.0517578125e-05 215.04345703125 C 3.0517578125e-05 96.2783203125 96.2783203125 3.0517578125e-05 215.04345703125 3.0517578125e-05 Z" stroke="none" fill="#fff"/>
  </g>
</svg>
