<svg xmlns="http://www.w3.org/2000/svg" width="553" height="553" viewBox="0 0 553 553">
  <g id="Pfad_110" data-name="Pfad 110" fill="none" opacity="0.298">
    <path d="M276.5,0C429.207,0,553,123.793,553,276.5S429.207,553,276.5,553,0,429.207,0,276.5,123.793,0,276.5,0Z" stroke="none"/>
    <path d="M 276.5 90 C 173.6635131835938 90 90 173.6635131835938 90 276.5 C 90 379.3364868164062 173.6635131835938 463 276.5 463 C 379.3364868164062 463 463 379.3364868164062 463 276.5 C 463 173.6635131835938 379.3364868164062 90 276.5 90 M 276.5 0 C 429.2066650390625 0 553 123.7933349609375 553 276.5 C 553 429.2066650390625 429.2066650390625 553 276.5 553 C 123.7933349609375 553 0 429.2066650390625 0 276.5 C 0 123.7933349609375 123.7933349609375 0 276.5 0 Z" stroke="none" fill="#28a5bc"/>
  </g>
</svg>
