<svg xmlns="http://www.w3.org/2000/svg" width="63.089" height="73.491" viewBox="0 0 63.089 73.491">
  <g id="Gruppe_237" data-name="Gruppe 237" transform="translate(-430.966 -338.51)">
    <circle id="Ellipse_97" data-name="Ellipse 97" cx="5.818" cy="5.818" r="5.818" transform="translate(456.718 363.792)" fill="none" stroke="#28a5bc" stroke-linecap="round" stroke-linejoin="round" stroke-width="3"/>
    <path id="Pfad_324" data-name="Pfad 324" d="M469.24,395.128,456.4,430.572l21.673-21.461" transform="translate(-8.69 -20.072)" fill="none" stroke="#28a5bc" stroke-linecap="round" stroke-linejoin="round" stroke-width="3"/>
    <path id="Pfad_325" data-name="Pfad 325" d="M477.681,395.128l12.841,35.444-21.673-21.461" transform="translate(-13.224 -20.072)" fill="none" stroke="#28a5bc" stroke-linecap="round" stroke-linejoin="round" stroke-width="3"/>
    <path id="Pfad_326" data-name="Pfad 326" d="M456.137,387.6a16.831,16.831,0,0,1-3.7-6.66,17.612,17.612,0,0,1,1.586-12.9,18.07,18.07,0,0,1,7.295-7.295,17.772,17.772,0,0,1,8.669-2.114,17.317,17.317,0,0,1,7.93,2.114,17.973,17.973,0,0,1,6.554,6.344c.678,1.115,4.209,7.2,2.009,14.378a17.04,17.04,0,0,1-3.805,6.554" transform="translate(-7.027 -6.78)" fill="none" stroke="#28a5bc" stroke-linecap="round" stroke-linejoin="round" stroke-width="3"/>
    <path id="Pfad_327" data-name="Pfad 327" d="M439.826,389.089a28.494,28.494,0,0,1-6.268-11.283c-2.928-10.386,1.214-19.11,2.686-21.849A30.593,30.593,0,0,1,448.6,343.6a30.1,30.1,0,0,1,14.686-3.582A29.325,29.325,0,0,1,476.72,343.6a30.431,30.431,0,0,1,11.1,10.746c1.148,1.89,7.13,12.206,3.4,24.357a28.883,28.883,0,0,1-6.447,11.1" fill="none" stroke="#28a5bc" stroke-linecap="round" stroke-linejoin="round" stroke-width="3"/>
  </g>
</svg>
