<svg xmlns="http://www.w3.org/2000/svg" width="66.253" height="70.772" viewBox="0 0 66.253 70.772">
  <g id="Gruppe_284" data-name="Gruppe 284" transform="translate(-248.446 -496.77)">
    <line id="Linie_212" data-name="Linie 212" x2="17.473" transform="translate(272.656 557.723)" fill="none" stroke="#28a5bc" stroke-linecap="round" stroke-linejoin="round" stroke-width="3"/>
    <line id="Linie_213" data-name="Linie 213" x2="11.857" transform="translate(275.644 561.883)" fill="none" stroke="#28a5bc" stroke-linecap="round" stroke-linejoin="round" stroke-width="3"/>
    <line id="Linie_214" data-name="Linie 214" x2="7.812" transform="translate(277.666 566.042)" fill="none" stroke="#28a5bc" stroke-linecap="round" stroke-linejoin="round" stroke-width="3"/>
    <path id="Pfad_428" data-name="Pfad 428" d="M311.141,525.427h-4.09a25.7,25.7,0,0,0-.856-3.2l3.55-2.05a3.559,3.559,0,0,0,1.3-4.861l-1.535-2.659a3.556,3.556,0,0,0-4.861-1.3l-3.545,2.047a26.121,26.121,0,0,0-2.4-2.4l2.171-3.367a3.558,3.558,0,0,0-1.062-4.919l-2.579-1.663a3.558,3.558,0,0,0-4.919,1.062l-2.447,3.795a25.833,25.833,0,0,0-3.239-.864v-4.717a3.559,3.559,0,0,0-3.558-3.558H280a3.559,3.559,0,0,0-3.558,3.558v4.734a25.738,25.738,0,0,0-3.222.873l-2.464-3.821a3.558,3.558,0,0,0-4.919-1.062l-2.579,1.663a3.557,3.557,0,0,0-1.062,4.92l2.205,3.419a26.217,26.217,0,0,0-2.373,2.388l-3.609-2.083a3.555,3.555,0,0,0-4.86,1.3l-1.535,2.658a3.556,3.556,0,0,0,1.3,4.861l3.63,2.1a25.751,25.751,0,0,0-.841,3.151H252a3.559,3.559,0,0,0-3.558,3.558v3.07A3.559,3.559,0,0,0,252,535.614h4.113a25.778,25.778,0,0,0,.862,3.211l-4.08,2.631a3.558,3.558,0,0,0-1.062,4.919l1.663,2.58a3.558,3.558,0,0,0,4.919,1.062l3.659-2.359a26.142,26.142,0,0,0,4.478,4.031l1.7-2.211a23.387,23.387,0,0,1-4.812-4.531,1.4,1.4,0,0,0-1.849-.3l-4.691,3.026a.765.765,0,0,1-1.057-.228l-1.664-2.58a.745.745,0,0,1-.122-.412.759.759,0,0,1,.35-.644l5.01-3.231a1.4,1.4,0,0,0,.546-1.679,22.949,22.949,0,0,1-1.3-4.885,1.4,1.4,0,0,0-1.381-1.188H252a.766.766,0,0,1-.765-.765v-3.07a.767.767,0,0,1,.765-.765h5.281a1.4,1.4,0,0,0,1.381-1.188,22.952,22.952,0,0,1,1.3-4.88,1.4,1.4,0,0,0-.6-1.714l-4.638-2.677a.765.765,0,0,1-.383-.664.756.756,0,0,1,.1-.381l1.535-2.659a.765.765,0,0,1,.664-.383.754.754,0,0,1,.38.1l4.622,2.668a1.4,1.4,0,0,0,1.792-.34,23.342,23.342,0,0,1,3.676-3.689,1.4,1.4,0,0,0,.3-1.847l-2.87-4.449a.762.762,0,0,1,.228-1.057l2.579-1.664a.746.746,0,0,1,.413-.122.761.761,0,0,1,.644.35l3.066,4.755a1.4,1.4,0,0,0,1.683.544,22.991,22.991,0,0,1,4.893-1.32,1.4,1.4,0,0,0,1.186-1.38v-5.9a.766.766,0,0,1,.765-.765h3.069a.766.766,0,0,1,.765.765v5.886a1.4,1.4,0,0,0,1.191,1.382,22.976,22.976,0,0,1,4.912,1.3,1.4,1.4,0,0,0,1.677-.546l3.047-4.724a.765.765,0,0,1,1.057-.228l2.579,1.664a.759.759,0,0,1,.35.644.743.743,0,0,1-.122.412l-2.837,4.4a1.4,1.4,0,0,0,.3,1.85,23.336,23.336,0,0,1,3.708,3.7,1.394,1.394,0,0,0,1.79.338l4.556-2.63a.751.751,0,0,1,.38-.1.766.766,0,0,1,.664.383l1.535,2.659a.757.757,0,0,1,.1.381.767.767,0,0,1-.383.664l-4.56,2.633a1.4,1.4,0,0,0-.6,1.717,22.966,22.966,0,0,1,1.319,4.922,1.4,1.4,0,0,0,1.381,1.188h5.257a.767.767,0,0,1,.764.765v3.07a.766.766,0,0,1-.764.765h-5.257a1.4,1.4,0,0,0-1.381,1.188,22.954,22.954,0,0,1-1.322,4.932,1.4,1.4,0,0,0,.545,1.682l4.934,3.182a.762.762,0,0,1,.35.644.753.753,0,0,1-.122.412l-1.664,2.58a.763.763,0,0,1-.644.35.754.754,0,0,1-.413-.122l-4.627-2.985a1.4,1.4,0,0,0-1.848.3,23.355,23.355,0,0,1-4.423,4.235l1.995,1.995a26.168,26.168,0,0,0,3.793-3.519l3.6,2.32a3.558,3.558,0,0,0,4.919-1.062l1.664-2.58a3.558,3.558,0,0,0-1.062-4.919l-4-2.58a25.662,25.662,0,0,0,.879-3.261h4.09a3.558,3.558,0,0,0,3.558-3.558v-3.07A3.559,3.559,0,0,0,311.141,525.427Z" transform="translate(0 0)" fill="#28a5bc"/>
    <path id="Pfad_429" data-name="Pfad 429" d="M299.12,532.406a16.513,16.513,0,1,0-29.4,10.332l-.017,0s.08.092.216.257c.071.084.136.172.208.255,1.252,1.552,4.884,6.424,4.884,10.662H290.2c0-4.239,3.633-9.11,4.883-10.662.072-.083.138-.171.208-.255.136-.165.217-.257.217-.257l-.017,0A16.519,16.519,0,0,0,299.12,532.406Z" transform="translate(-1.214 -1.309)" fill="none" stroke="#28a5bc" stroke-linecap="round" stroke-linejoin="round" stroke-width="3"/>
  </g>
</svg>
