<svg xmlns="http://www.w3.org/2000/svg" width="61.215" height="72.231" viewBox="0 0 61.215 72.231">
  <g id="Gruppe_267" data-name="Gruppe 267" transform="translate(-224.582 -131.982)">
    <path id="Pfad_309" data-name="Pfad 309" d="M281.98,149.912l-16.43-16.43h-1.379V148.06a3.223,3.223,0,0,0,3.224,3.224h14.589Z" transform="translate(2.313 0)" fill="none" stroke="#28a5bc" stroke-linecap="round" stroke-linejoin="round" stroke-width="3"/>
    <circle id="Ellipse_127" data-name="Ellipse 127" cx="13.477" cy="13.477" r="13.477" transform="translate(227.447 158.496)" fill="none" stroke="#28a5bc" stroke-linecap="round" stroke-linejoin="round" stroke-width="3"/>
    <circle id="Ellipse_128" data-name="Ellipse 128" cx="6.738" cy="6.738" r="6.738" transform="translate(234.185 165.234)" fill="none" stroke="#28a5bc" stroke-linecap="round" stroke-linejoin="round" stroke-width="3"/>
    <path id="Pfad_394" data-name="Pfad 394" d="M231.716,179.036l-5.634,17.8,6.675-2.647,4.23,5.755,3.936-17.264" transform="translate(0 2.767)" fill="none" stroke="#28a5bc" stroke-linecap="round" stroke-linejoin="round" stroke-width="3"/>
    <path id="Pfad_395" data-name="Pfad 395" d="M250.505,179.036l5.634,17.8-6.675-2.647-4.23,5.755L241.3,182.682" transform="translate(0.924 2.767)" fill="none" stroke="#28a5bc" stroke-linecap="round" stroke-linejoin="round" stroke-width="3"/>
    <g id="Gruppe_266" data-name="Gruppe 266" transform="translate(233.28 133.482)">
      <path id="Pfad_396" data-name="Pfad 396" d="M241.715,182.385a13.57,13.57,0,0,1-1.535.094l-1.871,8.208h5.042l-1.871-8.208Z" transform="translate(-232.538 -130.512)" fill="none" stroke="#28a5bc" stroke-linecap="round" stroke-linejoin="round" stroke-width="3"/>
      <path id="Pfad_397" data-name="Pfad 397" d="M267.45,133.482H238.481a5.613,5.613,0,0,0-5.613,5.611v21.785a13.466,13.466,0,0,1,15.656,21.911l2.493-.986,3.752,11.855h23.5a5.613,5.613,0,0,0,5.613-5.611V149.913Z" transform="translate(-232.868 -133.482)" fill="none" stroke="#28a5bc" stroke-linecap="round" stroke-linejoin="round" stroke-width="3"/>
    </g>
  </g>
</svg>
