<svg xmlns="http://www.w3.org/2000/svg" width="67.967" height="80.26" viewBox="0 0 67.967 80.26">
  <g id="Gruppe_267" data-name="Gruppe 267" transform="translate(-121.622 -384.83)">
    <path id="Pfad_309" data-name="Pfad 309" d="M183.4,404.667,165.063,386.33h-1.539V402.6a3.6,3.6,0,0,0,3.6,3.6H183.4Z" transform="translate(4.686 0)" fill="none" stroke="#28a5bc" stroke-linecap="round" stroke-linejoin="round" stroke-width="3"/>
    <circle id="Ellipse_127" data-name="Ellipse 127" cx="15.04" cy="15.04" r="15.04" transform="translate(124.645 414.246)" fill="none" stroke="#28a5bc" stroke-linecap="round" stroke-linejoin="round" stroke-width="3"/>
    <circle id="Ellipse_128" data-name="Ellipse 128" cx="7.519" cy="7.519" r="7.519" transform="translate(132.164 421.765)" fill="none" stroke="#28a5bc" stroke-linecap="round" stroke-linejoin="round" stroke-width="3"/>
    <path id="Pfad_394" data-name="Pfad 394" d="M129.409,434.651l-6.287,19.866,7.449-2.955,4.721,6.424,4.393-19.267" transform="translate(0 5.604)" fill="none" stroke="#28a5bc" stroke-linecap="round" stroke-linejoin="round" stroke-width="3"/>
    <path id="Pfad_395" data-name="Pfad 395" d="M149.537,434.651l6.287,19.866-7.449-2.955-4.721,6.424-4.39-19.264" transform="translate(1.872 5.604)" fill="none" stroke="#28a5bc" stroke-linecap="round" stroke-linejoin="round" stroke-width="3"/>
    <g id="Gruppe_266" data-name="Gruppe 266" transform="translate(131.155 386.33)">
      <path id="Pfad_396" data-name="Pfad 396" d="M139.892,438.2a14.909,14.909,0,0,1-1.713.1l-2.088,9.16h5.627l-2.088-9.16Z" transform="translate(-129.651 -380.314)" fill="none" stroke="#28a5bc" stroke-linecap="round" stroke-linejoin="round" stroke-width="3"/>
      <path id="Pfad_397" data-name="Pfad 397" d="M168.913,386.33H136.584a6.263,6.263,0,0,0-6.264,6.262V416.9a15.028,15.028,0,0,1,17.472,24.452l2.782-1.1,4.187,13.23h26.226a6.263,6.263,0,0,0,6.264-6.262V404.667Z" transform="translate(-130.32 -386.33)" fill="none" stroke="#28a5bc" stroke-linecap="round" stroke-linejoin="round" stroke-width="3"/>
    </g>
  </g>
</svg>
