<svg xmlns="http://www.w3.org/2000/svg" width="67.525" height="88.753" viewBox="0 0 67.525 88.753">
  <g id="Gruppe_260" data-name="Gruppe 260" transform="translate(-277.85 -250.304)">
    <path id="Pfad_385" data-name="Pfad 385" d="M306.54,294.449v31.625s.541,7.739,9.963,10.431,13.8-2.355,13.8-2.355a12.218,12.218,0,0,0,4.88-9.423v-17.5s-.336-3.87-3.7-3.87a3.39,3.39,0,0,0-3.533,3.2s.673-5.721-3.534-5.721-3.551,5.048-3.551,5.048.691-6.9-3.852-6.9-3.875,6.394-3.875,6.394v-11.61s.679-5.215-3.023-5.215a3.26,3.26,0,0,0-3.569,3.365Z" transform="translate(0.185 0.25)" fill="none" stroke="#28a5bc" stroke-linecap="round" stroke-linejoin="round" stroke-width="3"/>
    <line id="Linie_174" data-name="Linie 174" y2="7.171" transform="translate(313.287 304.498)" fill="none" stroke="#28a5bc" stroke-linecap="round" stroke-linejoin="round" stroke-width="3"/>
    <line id="Linie_175" data-name="Linie 175" y2="7.171" transform="translate(321.044 304.498)" fill="none" stroke="#28a5bc" stroke-linecap="round" stroke-linejoin="round" stroke-width="3"/>
    <line id="Linie_176" data-name="Linie 176" y2="7.171" transform="translate(328.137 304.498)" fill="none" stroke="#28a5bc" stroke-linecap="round" stroke-linejoin="round" stroke-width="3"/>
    <path id="Pfad_386" data-name="Pfad 386" d="M306.591,309.086s-3.442-2.556-6,0a5.427,5.427,0,0,0-1.278,5.681l7.946,13.765" transform="translate(0.134 0.382)" fill="none" stroke="#28a5bc" stroke-linecap="round" stroke-linejoin="round" stroke-width="3"/>
    <circle id="Ellipse_111" data-name="Ellipse 111" cx="6.498" cy="6.498" r="6.498" transform="translate(303.26 251.804)" fill="none" stroke="#28a5bc" stroke-linecap="round" stroke-linejoin="round" stroke-width="3"/>
    <rect id="Rechteck_172" data-name="Rechteck 172" width="12.428" height="8.451" transform="translate(279.35 268.067)" fill="none" stroke="#28a5bc" stroke-linecap="round" stroke-linejoin="round" stroke-width="3"/>
    <rect id="Rechteck_173" data-name="Rechteck 173" width="15.028" height="7.934" transform="translate(328.847 273.199)" fill="none" stroke="#28a5bc" stroke-linecap="round" stroke-linejoin="round" stroke-width="3"/>
    <path id="Pfad_387" data-name="Pfad 387" d="M301.722,295.225a11.178,11.178,0,0,1-1.7-7.457,10.863,10.863,0,0,1,2.533-5.6,10.536,10.536,0,0,1,4.264-2.967,10.278,10.278,0,0,1,3.217-.592,9.864,9.864,0,0,1,10.51,10.156,11.8,11.8,0,0,1-1.421,5.894" transform="translate(0.14 0.182)" fill="none" stroke="#28a5bc" stroke-linecap="round" stroke-linejoin="round" stroke-width="3"/>
    <line id="Linie_177" data-name="Linie 177" x2="9.083" y2="8.817" transform="translate(291.778 276.517)" fill="none" stroke="#28a5bc" stroke-linecap="round" stroke-linejoin="round" stroke-width="3"/>
    <line id="Linie_178" data-name="Linie 178" y2="13.99" transform="translate(309.758 264.8)" fill="none" stroke="#28a5bc" stroke-linecap="round" stroke-linejoin="round" stroke-width="3"/>
    <line id="Linie_179" data-name="Linie 179" x1="3.764" y2="2.912" transform="translate(325.084 281.133)" fill="none" stroke="#28a5bc" stroke-linecap="round" stroke-linejoin="round" stroke-width="3"/>
  </g>
</svg>
