<svg xmlns="http://www.w3.org/2000/svg" width="73.628" height="73.228" viewBox="0 0 73.628 73.228">
  <g id="Gruppe_193" data-name="Gruppe 193" transform="translate(-340.482 -383.271)">
    <path id="Pfad_238" data-name="Pfad 238" d="M412.61,420.481a13.775,13.775,0,0,0-8.789-12.835,19.142,19.142,0,0,0-35.072-13.774,9.1,9.1,0,0,0-12.683,12.03h-.3v.8a13.782,13.782,0,0,0,0,27.565h44.263V434.2A13.777,13.777,0,0,0,412.61,420.481Z" transform="translate(0)" fill="none" stroke="#28a5bc" stroke-linecap="round" stroke-linejoin="round" stroke-width="3"/>
    <rect id="Rechteck_140" data-name="Rechteck 140" width="14.603" height="8.565" transform="translate(371.591 428.76)" fill="#fff"/>
    <path id="Pfad_239" data-name="Pfad 239" d="M380.056,420.711v30.98l-10.424-10.424,10.424,10.424,10.411-10.412" transform="translate(-1.308 3.308)" fill="none" stroke="#28a5bc" stroke-linecap="round" stroke-linejoin="round" stroke-width="3"/>
  </g>
</svg>
