<svg xmlns="http://www.w3.org/2000/svg" width="67.316" height="84.597" viewBox="0 0 67.316 84.597">
  <g id="Gruppe_196" data-name="Gruppe 196" transform="translate(-251.217 -474.075)">
    <path id="Pfad_248" data-name="Pfad 248" d="M268.676,490.541l-10.652,17.818,28.47,41.059,29.126-41.059-11.7-17.818Z" transform="translate(-0.671 -1.891)" fill="none" stroke="#72bed9" stroke-linecap="round" stroke-linejoin="round" stroke-width="3"/>
    <path id="Pfad_249" data-name="Pfad 249" d="M270.217,490.541l17.818,58.877,17.431-58.877" transform="translate(-2.212 -1.891)" fill="none" stroke="#72bed9" stroke-linecap="round" stroke-linejoin="round" stroke-width="3"/>
    <line id="Linie_66" data-name="Linie 66" x2="57.597" transform="translate(257.353 506.468)" fill="none" stroke="#72bed9" stroke-linecap="round" stroke-linejoin="round" stroke-width="3"/>
    <path id="Pfad_250" data-name="Pfad 250" d="M276.39,508.359l12.232-17.818,12.349,17.818" transform="translate(-2.992 -1.891)" fill="none" stroke="#72bed9" stroke-linecap="round" stroke-linejoin="round" stroke-width="3"/>
    <path id="Pfad_251" data-name="Pfad 251" d="M310.012,547.468l2.853,6.542,6.542,2.853-6.542,2.853-2.853,6.542-2.853-6.542-6.542-2.853,6.542-2.853Z" transform="translate(-6.054 -9.086)" fill="none" stroke="#72bed9" stroke-linecap="round" stroke-linejoin="round" stroke-width="3"/>
    <path id="Pfad_252" data-name="Pfad 252" d="M259.254,534.768l1.985,4.552,4.552,1.985-4.552,1.985-1.985,4.552-1.985-4.552-4.553-1.985,4.553-1.985Z" transform="translate(0 -7.481)" fill="none" stroke="#72bed9" stroke-linecap="round" stroke-linejoin="round" stroke-width="3"/>
    <path id="Pfad_253" data-name="Pfad 253" d="M317.908,475.575l1.985,4.552,4.552,1.985-4.552,1.985-1.985,4.552-1.985-4.552-4.552-1.985,4.552-1.985Z" transform="translate(-7.413 0)" fill="none" stroke="#72bed9" stroke-linecap="round" stroke-linejoin="round" stroke-width="3"/>
  </g>
</svg>
