<svg xmlns="http://www.w3.org/2000/svg" width="93.749" height="64.737" viewBox="0 0 93.749 64.737">
  <g id="Gruppe_278" data-name="Gruppe 278" transform="translate(-164.014 -159.549)">
    <circle id="Ellipse_129" data-name="Ellipse 129" cx="12.166" cy="12.166" r="12.166" transform="translate(220.148 161.049)" fill="none" stroke="#28a5bc" stroke-linecap="round" stroke-linejoin="round" stroke-width="3"/>
    <path id="Pfad_409" data-name="Pfad 409" d="M215.974,168.013h-50.46v48.538H207.8" transform="translate(0 -1.856)" fill="none" stroke="#28a5bc" stroke-linecap="round" stroke-linejoin="round" stroke-width="3"/>
    <line id="Linie_210" data-name="Linie 210" x2="42.451" transform="translate(165.514 205.885)" fill="none" stroke="#28a5bc" stroke-linecap="round" stroke-linejoin="round" stroke-width="3"/>
    <line id="Linie_211" data-name="Linie 211" y2="28.674" transform="translate(194.028 171.924)" fill="none" stroke="#28a5bc" stroke-linecap="round" stroke-linejoin="round" stroke-width="3"/>
    <path id="Pfad_410" data-name="Pfad 410" d="M223.385,237.326V218.663a2.981,2.981,0,0,1,3.043-3.043h42.611a2.464,2.464,0,0,1,2.643,2.643v19.063" transform="translate(-15.42 -14.54)" fill="none" stroke="#28a5bc" stroke-linecap="round" stroke-linejoin="round" stroke-width="3"/>
    <circle id="Ellipse_130" data-name="Ellipse 130" cx="5.284" cy="5.284" r="5.284" transform="translate(174.105 175.694)" fill="none" stroke="#28a5bc" stroke-linecap="round" stroke-linejoin="round" stroke-width="3"/>
    <circle id="Ellipse_131" data-name="Ellipse 131" cx="5.284" cy="5.284" r="5.284" transform="translate(203.508 175.694)" fill="none" stroke="#28a5bc" stroke-linecap="round" stroke-linejoin="round" stroke-width="3"/>
    <path id="Pfad_411" data-name="Pfad 411" d="M230.591,211.749v-3.522s-.08-7.129,18.862-7.129,19.264,6.808,19.264,6.808v3.845" transform="translate(-17.34 -10.671)" fill="none" stroke="#28a5bc" stroke-linecap="round" stroke-linejoin="round" stroke-width="3"/>
    <path id="Pfad_412" data-name="Pfad 412" d="M228.5,204.534a6.668,6.668,0,0,0-6.6-4.175c-7.168,0-7.569,7.569-7.569,7.569l11.955-.161A5.346,5.346,0,0,1,228.5,204.534Z" transform="translate(-13.007 -10.474)" fill="none" stroke="#28a5bc" stroke-linecap="round" stroke-linejoin="round" stroke-width="3"/>
    <path id="Pfad_413" data-name="Pfad 413" d="M181.816,201.1c-7.169,0-7.569,7.569-7.569,7.569h14.825C188.729,206.292,187.347,201.1,181.816,201.1Z" transform="translate(-2.327 -10.671)" fill="none" stroke="#28a5bc" stroke-linecap="round" stroke-linejoin="round" stroke-width="3"/>
  </g>
</svg>
