<svg xmlns="http://www.w3.org/2000/svg" width="62.974" height="79.088" viewBox="0 0 62.974 79.088">
  <g id="Gruppe_258" data-name="Gruppe 258" transform="translate(-251.217 -474.075)">
    <path id="Pfad_248" data-name="Pfad 248" d="M267.957,490.541l-9.933,16.615,26.548,38.287,27.16-38.287-10.906-16.615Z" transform="translate(-0.984 -2.774)" fill="none" stroke="#28a5bc" stroke-linecap="round" stroke-linejoin="round" stroke-width="3"/>
    <path id="Pfad_249" data-name="Pfad 249" d="M270.217,490.541l16.615,54.9,16.254-54.9" transform="translate(-3.244 -2.774)" fill="none" stroke="#28a5bc" stroke-linecap="round" stroke-linejoin="round" stroke-width="3"/>
    <line id="Linie_66" data-name="Linie 66" x2="53.708" transform="translate(257.04 504.382)" fill="none" stroke="#28a5bc" stroke-linecap="round" stroke-linejoin="round" stroke-width="3"/>
    <path id="Pfad_250" data-name="Pfad 250" d="M276.39,507.156,287.8,490.541l11.516,16.615" transform="translate(-4.388 -2.774)" fill="none" stroke="#28a5bc" stroke-linecap="round" stroke-linejoin="round" stroke-width="3"/>
    <path id="Pfad_251" data-name="Pfad 251" d="M309.378,547.468l2.66,6.1,6.1,2.66-6.1,2.66-2.66,6.1-2.66-6.1-6.1-2.66,6.1-2.66Z" transform="translate(-8.879 -13.327)" fill="none" stroke="#28a5bc" stroke-linecap="round" stroke-linejoin="round" stroke-width="3"/>
    <path id="Pfad_252" data-name="Pfad 252" d="M258.813,534.768l1.851,4.245,4.245,1.851-4.245,1.851-1.851,4.245-1.851-4.245-4.245-1.851,4.245-1.851Z" transform="translate(0 -10.973)" fill="none" stroke="#28a5bc" stroke-linecap="round" stroke-linejoin="round" stroke-width="3"/>
    <path id="Pfad_253" data-name="Pfad 253" d="M317.467,475.575l1.851,4.245,4.245,1.851-4.245,1.851-1.851,4.245-1.851-4.245-4.245-1.851,4.245-1.851Z" transform="translate(-10.873 0)" fill="none" stroke="#28a5bc" stroke-linecap="round" stroke-linejoin="round" stroke-width="3"/>
  </g>
</svg>
