<svg xmlns="http://www.w3.org/2000/svg" width="54.439" height="54.439" viewBox="0 0 54.439 54.439">
  <g id="Gruppe_353" data-name="Gruppe 353" transform="translate(-2.684 -3.224)">
    <path id="Pfad_496" data-name="Pfad 496" d="M51.7,29.046a4.912,4.912,0,0,1-4.731-3.626,8.956,8.956,0,0,1-12.428-12.35A4.89,4.89,0,0,1,32.62,4.524,26.234,26.234,0,0,0,29.9,4.382,26.015,26.015,0,1,0,55.655,27.036,4.906,4.906,0,0,1,51.7,29.046Z" transform="translate(0 0.092)" fill="none" stroke="#2f2f2e" stroke-linecap="round" stroke-linejoin="round" stroke-width="2.5"/>
    <circle id="Ellipse_111" data-name="Ellipse 111" cx="4.297" cy="4.297" r="4.297" transform="translate(12.486 23.835)" fill="#2f2f2e"/>
    <circle id="Ellipse_112" data-name="Ellipse 112" cx="3.265" cy="3.265" r="3.265" transform="translate(33.378 39.081)" fill="#2f2f2e"/>
    <circle id="Ellipse_113" data-name="Ellipse 113" cx="2.523" cy="2.523" r="2.523" transform="translate(16.815 37.951)" fill="#2f2f2e"/>
    <circle id="Ellipse_114" data-name="Ellipse 114" cx="2.151" cy="2.151" r="2.151" transform="translate(27.236 29.173)" fill="#2f2f2e"/>
    <circle id="Ellipse_115" data-name="Ellipse 115" cx="1.742" cy="1.742" r="1.742" transform="translate(42.451 14.253)" fill="#2f2f2e"/>
    <circle id="Ellipse_116" data-name="Ellipse 116" cx="2.613" cy="2.613" r="2.613" transform="translate(43.322 3.524)" fill="#2f2f2e"/>
    <circle id="Ellipse_117" data-name="Ellipse 117" cx="1.742" cy="1.742" r="1.742" transform="translate(23.236 17.737)" fill="#2f2f2e"/>
    <circle id="Ellipse_118" data-name="Ellipse 118" cx="1.487" cy="1.487" r="1.487" transform="translate(53.458 17.544)" fill="#2f2f2e"/>
  </g>
</svg>
