<?xml version="1.0" encoding="utf-8"?>
<!-- Generator: Adobe Illustrator 25.4.1, SVG Export Plug-In . SVG Version: 6.00 Build 0)  -->
<svg version="1.1" id="Ebene_1" xmlns="http://www.w3.org/2000/svg" xmlns:xlink="http://www.w3.org/1999/xlink" x="0px" y="0px"
	 viewBox="0 0 333 63.8" style="enable-background:new 0 0 333 63.8;" xml:space="preserve">
<style type="text/css">
	.st0{fill:#009CB4;}
	.st1{fill:#2F2F2F;}
	.st2{fill:#FFFFFF;}
</style>
<g>
	<path class="st0" d="M95.2,7.3H15.5c-5.2,0-9.5,4.2-9.5,9.5v15.7v15.7v9.5h9.5h39.8h39.8c5.2,0,9.5-4.2,9.5-9.5V16.8
		C104.6,11.5,100.4,7.3,95.2,7.3z"/>
	<g>
		<path class="st1" d="M130.9,29.9c-0.4-0.5-0.8-1-1.5-1.4c-0.6-0.4-1.3-0.6-2.1-0.6c-0.8,0-1.6,0.1-2.3,0.4
			c-0.7,0.3-1.2,0.7-1.7,1.2c-0.5,0.5-0.8,1.1-1.1,1.8c-0.2,0.7-0.4,1.5-0.4,2.3c0,0.8,0.1,1.6,0.4,2.3c0.2,0.7,0.6,1.3,1.1,1.8
			c0.5,0.5,1,0.9,1.7,1.2c0.7,0.3,1.4,0.4,2.3,0.4c0.8,0,1.5-0.2,2.1-0.6c0.6-0.4,1.1-0.8,1.5-1.4l1.7,1.3c-0.7,0.8-1.5,1.5-2.4,1.9
			c-0.9,0.4-1.9,0.6-2.8,0.6c-1.2,0-2.2-0.2-3.2-0.5s-1.8-0.9-2.4-1.6c-0.7-0.7-1.2-1.5-1.5-2.4c-0.4-0.9-0.5-2-0.5-3
			c0-1.1,0.2-2.1,0.5-3c0.4-0.9,0.9-1.7,1.5-2.4c0.7-0.7,1.5-1.2,2.4-1.6c0.9-0.4,2-0.6,3.2-0.5c1,0,1.9,0.2,2.8,0.6
			c0.9,0.4,1.7,1,2.4,1.9L130.9,29.9z"/>
		<path class="st1" d="M149.9,33.8c0,1.1-0.2,2.1-0.6,3c-0.4,0.9-0.9,1.7-1.6,2.4c-0.7,0.7-1.5,1.2-2.4,1.6c-0.9,0.4-2,0.6-3.1,0.6
			c-1.1,0-2.1-0.2-3.1-0.6c-0.9-0.4-1.7-0.9-2.4-1.6c-0.7-0.7-1.2-1.5-1.6-2.4c-0.4-0.9-0.6-1.9-0.6-3c0-1.1,0.2-2.1,0.6-3
			c0.4-0.9,0.9-1.7,1.6-2.4c0.7-0.7,1.5-1.2,2.4-1.6c0.9-0.4,2-0.6,3.1-0.6c1.1,0,2.2,0.2,3.1,0.6c0.9,0.4,1.7,0.9,2.4,1.6
			c0.7,0.7,1.2,1.5,1.6,2.4C149.7,31.7,149.9,32.7,149.9,33.8z M147.7,33.8c0-0.8-0.1-1.6-0.4-2.3c-0.3-0.7-0.6-1.3-1.1-1.8
			c-0.5-0.5-1-0.9-1.7-1.2c-0.7-0.3-1.4-0.4-2.3-0.4c-0.8,0-1.6,0.1-2.3,0.4c-0.7,0.3-1.2,0.7-1.7,1.2c-0.5,0.5-0.8,1.1-1.1,1.8
			c-0.3,0.7-0.4,1.5-0.4,2.3s0.1,1.6,0.4,2.3c0.3,0.7,0.6,1.3,1.1,1.8c0.5,0.5,1,0.9,1.7,1.2s1.4,0.4,2.3,0.4c0.8,0,1.6-0.1,2.3-0.4
			c0.7-0.3,1.2-0.7,1.7-1.2c0.5-0.5,0.8-1.1,1.1-1.8C147.5,35.3,147.7,34.6,147.7,33.8z"/>
		<path class="st1" d="M153.6,29.8c0-0.5,0-1.1,0-1.6c0-0.5-0.1-1.1-0.1-1.6h2.2v2.2h0.1c0.5-0.8,1.2-1.5,2.1-1.9
			c0.9-0.4,1.7-0.6,2.6-0.6c0.4,0,0.8,0,1.3,0.1c0.4,0.1,0.9,0.2,1.3,0.4c0.4,0.2,0.8,0.5,1.2,0.9c0.4,0.4,0.7,0.9,0.9,1.5
			c0.4-0.9,1.1-1.7,2-2.2s1.8-0.8,2.8-0.8c1.9,0,3.2,0.5,4.1,1.5c0.9,1,1.3,2.4,1.3,4.2V41h-2v-8.4c0-1.5-0.3-2.6-0.8-3.4
			c-0.5-0.8-1.5-1.2-2.9-1.2c-0.8,0-1.4,0.1-1.9,0.4c-0.5,0.3-0.9,0.7-1.3,1.2c-0.3,0.5-0.6,1.1-0.7,1.7c-0.1,0.6-0.2,1.3-0.2,2V41
			h-2v-8.4c0-1.5-0.3-2.6-0.8-3.4c-0.5-0.8-1.5-1.2-2.9-1.2c-0.1,0-0.4,0-0.9,0.1c-0.4,0.1-0.9,0.3-1.4,0.7s-0.9,0.9-1.3,1.7
			c-0.4,0.7-0.6,1.8-0.6,3.1V41h-2V29.8z"/>
		<path class="st1" d="M180,29.8c0-0.5,0-1.1,0-1.6c0-0.5-0.1-1.1-0.1-1.6h2.2v2.2h0.1c0.5-0.8,1.2-1.5,2.1-1.9
			c0.9-0.4,1.7-0.6,2.6-0.6c0.4,0,0.8,0,1.3,0.1c0.4,0.1,0.9,0.2,1.3,0.4c0.4,0.2,0.8,0.5,1.2,0.9c0.4,0.4,0.7,0.9,0.9,1.5
			c0.4-0.9,1.1-1.7,2-2.2s1.8-0.8,2.8-0.8c1.9,0,3.2,0.5,4.1,1.5c0.9,1,1.3,2.4,1.3,4.2V41h-2v-8.4c0-1.5-0.3-2.6-0.8-3.4
			c-0.5-0.8-1.5-1.2-2.9-1.2c-0.8,0-1.4,0.1-1.9,0.4c-0.5,0.3-0.9,0.7-1.3,1.2c-0.3,0.5-0.6,1.1-0.7,1.7c-0.1,0.6-0.2,1.3-0.2,2V41
			h-2v-8.4c0-1.5-0.3-2.6-0.8-3.4c-0.5-0.8-1.5-1.2-2.9-1.2c-0.1,0-0.4,0-0.9,0.1c-0.4,0.1-0.9,0.3-1.4,0.7s-0.9,0.9-1.3,1.7
			c-0.4,0.7-0.6,1.8-0.6,3.1V41h-2V29.8z"/>
		<path class="st1" d="M216.8,41c0-0.4-0.1-0.8-0.1-1.2c0-0.4,0-0.8,0-1.2h-0.1c-0.2,0.4-0.5,0.8-0.9,1.1c-0.4,0.3-0.7,0.6-1.2,0.9
			c-0.4,0.2-0.9,0.4-1.4,0.6c-0.5,0.1-1,0.2-1.4,0.2c-1.9,0-3.2-0.5-4.1-1.5c-0.9-1-1.3-2.4-1.3-4.2v-9.2h2v8c0,0.8,0.1,1.5,0.2,2.1
			c0.1,0.6,0.3,1.1,0.6,1.6c0.3,0.4,0.7,0.7,1.2,1c0.5,0.2,1.1,0.3,1.9,0.3c0.1,0,0.4,0,0.9-0.1c0.5-0.1,1-0.3,1.5-0.7
			c0.5-0.4,1-0.9,1.4-1.7c0.4-0.7,0.6-1.8,0.6-3.1v-7.4h2v11.3c0,0.4,0,0.9,0,1.5c0,0.6,0.1,1.2,0.1,1.7H216.8z"/>
		<path class="st1" d="M225.5,26.5c0,0.4,0.1,0.8,0.1,1.2c0,0.4,0,0.8,0,1.2h0.1c0.2-0.4,0.5-0.8,0.9-1.1c0.3-0.3,0.7-0.6,1.2-0.9
			c0.4-0.2,0.9-0.4,1.4-0.6c0.5-0.1,1-0.2,1.4-0.2c1.9,0,3.2,0.5,4.1,1.5c0.9,1,1.3,2.4,1.3,4.2V41h-2v-8c0-1.6-0.3-2.8-0.8-3.7
			c-0.6-0.9-1.6-1.3-3.1-1.3c-0.1,0-0.4,0-0.9,0.1s-1,0.3-1.5,0.7c-0.5,0.4-1,0.9-1.4,1.7c-0.4,0.7-0.6,1.8-0.6,3.1V41h-2V29.7
			c0-0.4,0-0.9,0-1.5c0-0.6-0.1-1.2-0.1-1.7H225.5z"/>
		<path class="st1" d="M243.7,21c0,0.4-0.2,0.8-0.5,1.1c-0.3,0.3-0.6,0.4-1,0.4s-0.7-0.1-1-0.4c-0.3-0.3-0.5-0.6-0.5-1.1
			c0-0.4,0.2-0.8,0.5-1.1c0.3-0.3,0.6-0.4,1-0.4s0.7,0.1,1,0.4C243.5,20.2,243.7,20.5,243.7,21z M243.2,41h-2V26.5h2V41z"/>
		<path class="st1" d="M258.7,29.9c-0.4-0.5-0.8-1-1.5-1.4c-0.6-0.4-1.3-0.6-2.1-0.6c-0.8,0-1.6,0.1-2.3,0.4
			c-0.7,0.3-1.2,0.7-1.7,1.2c-0.5,0.5-0.8,1.1-1.1,1.8c-0.2,0.7-0.4,1.5-0.4,2.3c0,0.8,0.1,1.6,0.4,2.3c0.2,0.7,0.6,1.3,1.1,1.8
			s1,0.9,1.7,1.2c0.7,0.3,1.4,0.4,2.3,0.4c0.8,0,1.5-0.2,2.1-0.6c0.6-0.4,1.1-0.8,1.5-1.4l1.7,1.3c-0.7,0.8-1.5,1.5-2.4,1.9
			c-0.9,0.4-1.9,0.6-2.8,0.6c-1.2,0-2.2-0.2-3.2-0.5s-1.8-0.9-2.4-1.6c-0.7-0.7-1.2-1.5-1.5-2.4c-0.4-0.9-0.5-2-0.5-3
			c0-1.1,0.2-2.1,0.5-3c0.4-0.9,0.9-1.7,1.5-2.4c0.7-0.7,1.5-1.2,2.4-1.6c0.9-0.4,2-0.6,3.2-0.5c1,0,1.9,0.2,2.8,0.6
			c0.9,0.4,1.7,1,2.4,1.9L258.7,29.9z"/>
		<path class="st1" d="M272.3,32.1v-0.4c0-2.5-1.2-3.7-3.7-3.7c-1.7,0-3.2,0.6-4.4,1.7l-1.2-1.5c1.4-1.4,3.4-2.1,6.1-2.1
			c0.7,0,1.4,0.1,2,0.3c0.6,0.2,1.2,0.5,1.7,0.9c0.5,0.4,0.9,1,1.1,1.6c0.3,0.6,0.4,1.4,0.4,2.3v6.5c0,0.6,0,1.1,0.1,1.7
			c0.1,0.6,0.1,1.1,0.2,1.5h-2c-0.1-0.4-0.1-0.7-0.1-1.1c0-0.4,0-0.8,0-1.2h-0.1c-0.6,1-1.3,1.7-2.1,2.1c-0.8,0.4-1.8,0.6-3,0.6
			c-0.6,0-1.3-0.1-1.9-0.3c-0.6-0.2-1.1-0.4-1.6-0.8c-0.5-0.4-0.8-0.8-1.1-1.3c-0.3-0.5-0.4-1.1-0.4-1.8c0-1.2,0.3-2.1,0.9-2.8
			c0.6-0.7,1.4-1.2,2.3-1.5c0.9-0.3,1.9-0.5,2.9-0.6c1-0.1,2-0.1,2.9-0.1H272.3z M271.3,33.8c-0.5,0-1.2,0-1.9,0.1
			c-0.8,0.1-1.5,0.2-2.2,0.4c-0.7,0.2-1.3,0.5-1.8,0.9c-0.5,0.4-0.8,1-0.8,1.7c0,0.5,0.1,0.9,0.3,1.2c0.2,0.3,0.5,0.6,0.8,0.8
			c0.3,0.2,0.7,0.4,1.1,0.5c0.4,0.1,0.8,0.1,1.2,0.1c0.7,0,1.4-0.1,1.9-0.4c0.5-0.2,1-0.6,1.4-1c0.4-0.4,0.6-0.9,0.8-1.5
			c0.2-0.6,0.3-1.2,0.3-1.8v-1.1H271.3z"/>
		<path class="st1" d="M286.6,28.4h-4.2v8.5c0,0.5,0.1,1,0.2,1.3c0.1,0.3,0.2,0.6,0.4,0.8s0.4,0.3,0.7,0.4c0.3,0.1,0.5,0.1,0.9,0.1
			c0.3,0,0.7-0.1,1.1-0.2c0.4-0.1,0.7-0.2,1-0.4l0.1,1.9c-0.8,0.4-1.7,0.5-2.8,0.5c-0.4,0-0.8-0.1-1.2-0.2c-0.4-0.1-0.8-0.3-1.2-0.6
			c-0.4-0.3-0.6-0.7-0.9-1.2c-0.2-0.5-0.3-1.1-0.3-1.9v-9.1h-3.1v-1.9h3.1v-4.1h2v4.1h4.2V28.4z"/>
		<path class="st1" d="M292.3,21c0,0.4-0.2,0.8-0.5,1.1c-0.3,0.3-0.6,0.4-1,0.4s-0.7-0.1-1-0.4c-0.3-0.3-0.5-0.6-0.5-1.1
			c0-0.4,0.2-0.8,0.5-1.1c0.3-0.3,0.6-0.4,1-0.4s0.7,0.1,1,0.4C292.2,20.2,292.3,20.5,292.3,21z M291.8,41h-2V26.5h2V41z"/>
		<path class="st1" d="M311.4,33.8c0,1.1-0.2,2.1-0.6,3c-0.4,0.9-0.9,1.7-1.6,2.4c-0.7,0.7-1.5,1.2-2.4,1.6c-0.9,0.4-2,0.6-3.1,0.6
			c-1.1,0-2.1-0.2-3.1-0.6c-0.9-0.4-1.7-0.9-2.4-1.6c-0.7-0.7-1.2-1.5-1.6-2.4c-0.4-0.9-0.6-1.9-0.6-3c0-1.1,0.2-2.1,0.6-3
			c0.4-0.9,0.9-1.7,1.6-2.4c0.7-0.7,1.5-1.2,2.4-1.6c0.9-0.4,2-0.6,3.1-0.6c1.1,0,2.2,0.2,3.1,0.6c0.9,0.4,1.7,0.9,2.4,1.6
			c0.7,0.7,1.2,1.5,1.6,2.4C311.2,31.7,311.4,32.7,311.4,33.8z M309.2,33.8c0-0.8-0.1-1.6-0.4-2.3c-0.3-0.7-0.6-1.3-1.1-1.8
			c-0.5-0.5-1-0.9-1.7-1.2c-0.7-0.3-1.4-0.4-2.3-0.4c-0.8,0-1.6,0.1-2.3,0.4c-0.7,0.3-1.2,0.7-1.7,1.2c-0.5,0.5-0.8,1.1-1.1,1.8
			c-0.3,0.7-0.4,1.5-0.4,2.3s0.1,1.6,0.4,2.3c0.3,0.7,0.6,1.3,1.1,1.8c0.5,0.5,1,0.9,1.7,1.2s1.4,0.4,2.3,0.4c0.8,0,1.6-0.1,2.3-0.4
			c0.7-0.3,1.2-0.7,1.7-1.2c0.5-0.5,0.8-1.1,1.1-1.8C309,35.3,309.2,34.6,309.2,33.8z"/>
		<path class="st1" d="M317.1,26.5c0,0.4,0.1,0.8,0.1,1.2c0,0.4,0,0.8,0,1.2h0.1c0.2-0.4,0.5-0.8,0.9-1.1c0.3-0.3,0.7-0.6,1.2-0.9
			c0.4-0.2,0.9-0.4,1.4-0.6c0.5-0.1,1-0.2,1.4-0.2c1.9,0,3.2,0.5,4.1,1.5c0.9,1,1.3,2.4,1.3,4.2V41h-2v-8c0-1.6-0.3-2.8-0.8-3.7
			c-0.6-0.9-1.6-1.3-3.1-1.3c-0.1,0-0.4,0-0.9,0.1s-1,0.3-1.5,0.7c-0.5,0.4-1,0.9-1.4,1.7c-0.4,0.7-0.6,1.8-0.6,3.1V41h-2V29.7
			c0-0.4,0-0.9,0-1.5c0-0.6-0.1-1.2-0.1-1.7H317.1z"/>
	</g>
	<g>
		<path class="st2" d="M28.9,43.3c-6,0-10.4-4.8-10.4-11.1c0-6.4,4.4-10.7,10.4-10.7h11.6v2.9H28.9c-4.3,0-7.5,3.2-7.5,7.9
			c0,4.6,3.1,8.1,7.5,8.1h11.6v2.9H28.9z"/>
		<path class="st2" d="M43.8,43.3v-2.9H60c2.4,0,3.7-1.4,3.7-3.4c0-2.2-1.3-3.4-3.7-3.4H49.9c-3.9,0-6.3-2.6-6.3-6.1
			c0-3.4,2.2-6,6.4-6h15.5v2.9H49.9c-2.2,0-3.4,1.3-3.4,3.2c0,2,1.3,3.2,3.4,3.2H60c4.2,0,6.5,2.1,6.5,6.2c0,3.6-2.1,6.2-6.5,6.2
			H43.8z"/>
		<path class="st2" d="M72.8,25.9v17.4H70V23.1c0-1.1,0.6-1.8,1.5-1.8c0.4,0,0.9,0.2,1.4,0.7l16.5,16.8V21.4h2.8v20.4
			c0,1.1-0.6,1.8-1.5,1.8c-0.5,0-1.1-0.3-1.5-0.7L72.8,25.9z"/>
	</g>
</g>
</svg>
