<svg xmlns="http://www.w3.org/2000/svg" width="72.999" height="59.73" viewBox="0 0 72.999 59.73">
  <g id="Gruppe_221" data-name="Gruppe 221" transform="translate(-396.749 -691.835)">
    <path id="Pfad_308" data-name="Pfad 308" d="M430.851,693.335h-27.31a5.291,5.291,0,0,0-5.292,5.29v46.149a5.292,5.292,0,0,0,5.291,5.291h37.509a5.292,5.292,0,0,0,5.292-5.29h0v-35.95Z" transform="translate(0)" fill="none" stroke="#28a5bc" stroke-linecap="round" stroke-linejoin="round" stroke-width="3"/>
    <path id="Pfad_309" data-name="Pfad 309" d="M449.858,708.824l-15.489-15.489h-1.3v13.743a3.039,3.039,0,0,0,3.039,3.039h13.754Z" transform="translate(-3.517)" fill="none" stroke="#28a5bc" stroke-linecap="round" stroke-linejoin="round" stroke-width="3"/>
    <rect id="Rechteck_155" data-name="Rechteck 155" width="11.45" height="12.175" transform="translate(439.245 720.243)" fill="#fff"/>
    <line id="Linie_103" data-name="Linie 103" x2="36.351" transform="translate(429.547 726.35)" fill="none" stroke="#28a5bc" stroke-linecap="round" stroke-linejoin="round" stroke-width="3"/>
    <path id="Pfad_297" data-name="Pfad 297" d="M463.252,740.024l11.563-11.132-11.563-11.316" transform="translate(-6.567 -2.449)" fill="none" stroke="#28a5bc" stroke-linecap="round" stroke-linejoin="round" stroke-width="3"/>
  </g>
</svg>
