<svg xmlns="http://www.w3.org/2000/svg" width="58.21" height="59.135" viewBox="0 0 58.21 59.135">
  <g id="Gruppe_270" data-name="Gruppe 270" transform="translate(-371.805 -97.751)">
    <path id="Pfad_398" data-name="Pfad 398" d="M421.572,99.251H380.249a6.944,6.944,0,0,0-6.944,6.944v28.913a6.944,6.944,0,0,0,6.944,6.943h5.078v13.334l15.583-13.334h20.662a6.943,6.943,0,0,0,6.943-6.943V106.195A6.944,6.944,0,0,0,421.572,99.251Z" fill="none" stroke="#28a5bc" stroke-linecap="round" stroke-linejoin="round" stroke-width="3"/>
    <g id="Gruppe_269" data-name="Gruppe 269" transform="translate(384.801 110.064)">
      <path id="Pfad_399" data-name="Pfad 399" d="M384.753,129.571V110.019h7c5.571,0,9.651,3.613,9.651,9.791s-4.108,9.762-9.678,9.762Zm6.838-3.53c3.2,0,5.873-1.985,5.873-6.232s-2.647-6.261-5.845-6.261h-3.062v12.493Z" transform="translate(-384.753 -110.019)" fill="#28a5bc"/>
      <path id="Pfad_400" data-name="Pfad 400" d="M404.646,129.571V110.019h12.243V113.6h-8.438v4.468h7.639v3.392h-7.639v4.523h8.438v3.585Z" transform="translate(-384.67 -110.019)" fill="#28a5bc"/>
    </g>
  </g>
</svg>
