<svg xmlns="http://www.w3.org/2000/svg" width="82.091" height="81.323" viewBox="0 0 82.091 81.323">
  <g id="Gruppe_244" data-name="Gruppe 244" transform="translate(-329.857 -360.14)">
    <rect id="Rechteck_162" data-name="Rechteck 162" width="21.497" height="16.613" rx="3.737" transform="translate(360.22 396.539)" fill="none" stroke="#28a5bc" stroke-linecap="round" stroke-linejoin="round" stroke-width="3"/>
    <path id="Pfad_338" data-name="Pfad 338" d="M414.338,432.361v-4.873s-.428-6.542,6.542-6.542,6.535,6.535,6.535,6.535v4.881" transform="translate(-50.119 -35.821)" fill="none" stroke="#28a5bc" stroke-linecap="round" stroke-linejoin="round" stroke-width="3"/>
    <path id="Pfad_339" data-name="Pfad 339" d="M419.639,465.966l2.9,2.833,6.145-5.97" transform="translate(-53.324 -61.12)" fill="none" stroke="#28a5bc" stroke-linecap="round" stroke-linejoin="round" stroke-width="3"/>
    <path id="Pfad_340" data-name="Pfad 340" d="M338.795,443.286l1.974,5.1,5.464.3-4.244,3.454,1.4,5.289-4.6-2.969-4.6,2.969,1.4-5.289-4.244-3.454,5.464-.3Z" transform="translate(0 -49.315)" fill="none" stroke="#28a5bc" stroke-linecap="round" stroke-linejoin="round" stroke-width="3"/>
    <path id="Pfad_341" data-name="Pfad 341" d="M500.962,443.286l1.974,5.1,5.464.3-4.244,3.454,1.4,5.289-4.6-2.969-4.6,2.969,1.4-5.289-4.244-3.454,5.464-.3Z" transform="translate(-97.952 -49.315)" fill="none" stroke="#28a5bc" stroke-linecap="round" stroke-linejoin="round" stroke-width="3"/>
    <path id="Pfad_342" data-name="Pfad 342" d="M419.513,523.706l1.974,5.1,5.464.3-4.244,3.454,1.4,5.289-4.6-2.969-4.6,2.969,1.4-5.289-4.244-3.454,5.464-.3Z" transform="translate(-48.755 -97.89)" fill="none" stroke="#28a5bc" stroke-linecap="round" stroke-linejoin="round" stroke-width="3"/>
    <path id="Pfad_343" data-name="Pfad 343" d="M419.513,361.64l1.974,5.1,5.464.3-4.244,3.454,1.4,5.289-4.6-2.969-4.6,2.969,1.4-5.289-4.244-3.454,5.464-.3Z" transform="translate(-48.755 0)" fill="none" stroke="#28a5bc" stroke-linecap="round" stroke-linejoin="round" stroke-width="3"/>
    <path id="Pfad_344" data-name="Pfad 344" d="M363.495,386.576l1.974,5.1,5.464.3-4.244,3.454,1.4,5.289-4.6-2.969-4.6,2.969,1.4-5.289-4.244-3.454,5.464-.3Z" transform="translate(-14.919 -15.062)" fill="none" stroke="#28a5bc" stroke-linecap="round" stroke-linejoin="round" stroke-width="3"/>
    <path id="Pfad_345" data-name="Pfad 345" d="M475.655,386.576l1.974,5.1,5.464.3-4.244,3.454,1.4,5.289-4.6-2.969-4.6,2.969,1.4-5.289-4.244-3.454,5.464-.3Z" transform="translate(-82.666 -15.062)" fill="none" stroke="#28a5bc" stroke-linecap="round" stroke-linejoin="round" stroke-width="3"/>
    <path id="Pfad_346" data-name="Pfad 346" d="M366.531,495.44l1.974,5.1,5.464.3-4.244,3.454,1.4,5.289-4.6-2.969-4.6,2.969,1.4-5.289-4.244-3.454,5.464-.3Z" transform="translate(-16.753 -80.817)" fill="none" stroke="#28a5bc" stroke-linecap="round" stroke-linejoin="round" stroke-width="3"/>
    <path id="Pfad_347" data-name="Pfad 347" d="M475.655,497.968l1.974,5.1,5.464.3-4.244,3.454,1.4,5.289-4.6-2.969-4.6,2.969,1.4-5.289-4.244-3.454,5.464-.3Z" transform="translate(-82.666 -82.344)" fill="none" stroke="#28a5bc" stroke-linecap="round" stroke-linejoin="round" stroke-width="3"/>
  </g>
</svg>
