<svg xmlns="http://www.w3.org/2000/svg" width="76.852" height="76.852" viewBox="0 0 76.852 76.852">
  <g id="Gruppe_195" data-name="Gruppe 195" transform="translate(-189.71 -380.276)">
    <line id="Linie_60" data-name="Linie 60" x2="21.07" y2="21.07" transform="translate(209.359 416.409)" fill="none" stroke="#28a5bc" stroke-linecap="round" stroke-linejoin="round" stroke-width="3"/>
    <line id="Linie_61" data-name="Linie 61" y1="7.745" x2="7.745" transform="translate(214.927 414.232)" fill="none" stroke="#28a5bc" stroke-linecap="round" stroke-linejoin="round" stroke-width="3"/>
    <line id="Linie_62" data-name="Linie 62" y1="7.745" x2="7.745" transform="translate(225.011 424.316)" fill="none" stroke="#28a5bc" stroke-linecap="round" stroke-linejoin="round" stroke-width="3"/>
    <path id="Pfad_246" data-name="Pfad 246" d="M211.605,419.863l-8.046,8.046s-9.631,8.729-.6,17.759,17.191,0,17.191,0l8.631-8.631" transform="translate(-0.29 -1.497)" fill="none" stroke="#28a5bc" stroke-linecap="round" stroke-linejoin="round" stroke-width="3"/>
    <line id="Linie_63" data-name="Linie 63" y1="10.836" x2="10.836" transform="translate(191.832 444.171)" fill="none" stroke="#28a5bc" stroke-linecap="round" stroke-linejoin="round" stroke-width="3"/>
    <line id="Linie_64" data-name="Linie 64" x1="21.07" y1="21.07" transform="translate(225.844 399.924)" fill="none" stroke="#28a5bc" stroke-linecap="round" stroke-linejoin="round" stroke-width="3"/>
    <path id="Pfad_247" data-name="Pfad 247" d="M246.453,419.322l8.046-8.046s9.632-8.73.6-17.759-17.191,0-17.191,0l-8.631,8.631" transform="translate(-1.496 -0.284)" fill="none" stroke="#28a5bc" stroke-linecap="round" stroke-linejoin="round" stroke-width="3"/>
    <line id="Linie_65" data-name="Linie 65" x1="10.836" y2="10.836" transform="translate(253.605 382.397)" fill="none" stroke="#28a5bc" stroke-linecap="round" stroke-linejoin="round" stroke-width="3"/>
  </g>
</svg>
