<svg xmlns="http://www.w3.org/2000/svg" width="67.819" height="64.777" viewBox="0 0 67.819 64.777">
  <g id="Gruppe_157" data-name="Gruppe 157" transform="translate(-181.153 -182.022)">
    <path id="Pfad_89" data-name="Pfad 89" d="M240.743,183.522h-51.36a6.729,6.729,0,0,0-6.73,6.729V224.2a6.73,6.73,0,0,0,6.73,6.73h7.266V245.3l16.781-14.366h27.314a6.73,6.73,0,0,0,6.73-6.73V190.251A6.729,6.729,0,0,0,240.743,183.522Z" transform="translate(0 0)" fill="none" stroke="#2f2f2e" stroke-linecap="round" stroke-linejoin="round" stroke-width="3"/>
    <path id="Pfad_90" data-name="Pfad 90" d="M260.949,236.182v-5.433H241.029c-2.9,0-2.656,9.416-2.656,9.416s-.241,9.416,2.656,9.416h19.919v-5.433l8.451,5.433V230.749Z" transform="translate(-38.949 -33.015)" fill="none" stroke="#2f2f2e" stroke-linecap="round" stroke-linejoin="round" stroke-width="3"/>
  </g>
</svg>
