<svg xmlns="http://www.w3.org/2000/svg" width="524.316" height="524.315" viewBox="0 0 524.316 524.315">
  <g id="Pfad_235" data-name="Pfad 235" transform="translate(64.608) rotate(8)" fill="none" opacity="0.304">
    <path d="M232.113,0C360.305,0,464.226,103.921,464.226,232.113S360.305,464.226,232.113,464.226,0,360.305,0,232.113,103.921,0,232.113,0Z" stroke="none"/>
    <path d="M 232.1128997802734 119.9999389648438 C 170.2936401367188 119.9999389648438 120 170.2935791015625 120 232.1128540039062 C 120 293.93212890625 170.2936401367188 344.2257690429688 232.1128997802734 344.2257690429688 C 293.9321899414062 344.2257690429688 344.2257995605469 293.93212890625 344.2257995605469 232.1128540039062 C 344.2257995605469 170.2935791015625 293.9321899414062 119.9999389648438 232.1128997802734 119.9999389648438 M 232.1128997802734 -6.103515625e-05 C 360.3052673339844 -6.103515625e-05 464.2257995605469 103.9205017089844 464.2257995605469 232.1128540039062 C 464.2257995605469 360.3052062988281 360.3052673339844 464.2257690429688 232.1128997802734 464.2257690429688 C 103.9205322265625 464.2257690429688 0 360.3052062988281 0 232.1128540039062 C 0 103.9205017089844 103.9205322265625 -6.103515625e-05 232.1128997802734 -6.103515625e-05 Z" stroke="none" fill="#28a5bc"/>
  </g>
</svg>
