<svg xmlns="http://www.w3.org/2000/svg" xmlns:xlink="http://www.w3.org/1999/xlink" width="1141.209" height="1141.109" viewBox="0 0 1141.209 1141.109">
  <defs>
    <clipPath id="clip-path">
      <rect id="Rechteck_185" data-name="Rechteck 185" width="1141.209" height="1141.109" fill="#11445b"/>
    </clipPath>
  </defs>
  <g id="Gruppe_344" data-name="Gruppe 344" transform="translate(0)">
    <g id="Gruppe_343" data-name="Gruppe 343" transform="translate(0 0)" clip-path="url(#clip-path)">
      <path id="Pfad_496" data-name="Pfad 496" d="M16.47,222.185C32.414,152.519,52.444,76.861,77.162,0,189.445,22.061,278.139,73.3,346,138.405c-49.511,80.446-110.93,163.775-185.635,240.21C120.381,340.585,67.611,311.305,0,298.62q7.445-36.7,16.47-76.435" transform="translate(453.42 407.923)" fill="#11445b"/>
      <path id="Pfad_497" data-name="Pfad 497" d="M122.236,0A683.933,683.933,0,0,1,229.28,8.824c-24.467,76.56-44.347,151.767-60.24,221.032q-9.288,40.687-16.821,78.265a425.34,425.34,0,0,0-53.6-3.81,350.408,350.408,0,0,0-92.6,12.008A942.967,942.967,0,0,1,0,209.977C-.025,139.283,7.671,71.572,19.7,8.749A598.856,598.856,0,0,1,122.236,0" transform="translate(277.312 394.837)" fill="#11445b"/>
      <path id="Pfad_498" data-name="Pfad 498" d="M199,0a409.073,409.073,0,0,1,19.328,94.785A712.877,712.877,0,0,1,91.451,106.417,654.325,654.325,0,0,1,.025,100.075C4.537,86.914,4.287,72.825,0,59.137A1060.693,1060.693,0,0,0,199,0" transform="translate(480.294 937.427)" fill="#11445b"/>
      <path id="Pfad_499" data-name="Pfad 499" d="M0,131.386A1072.759,1072.759,0,0,0,162.922,0a309.146,309.146,0,0,1,30.785,40.862,341.429,341.429,0,0,1,26.6,52.569A1041.492,1041.492,0,0,1,18.827,152.745,109.457,109.457,0,0,0,0,131.386" transform="translate(450.537 821.258)" fill="#11445b"/>
      <path id="Pfad_500" data-name="Pfad 500" d="M0,200.726c1.905-15.367,4.462-34.745,7.8-57.533C13.487,104.236,21.484,55.377,32.239,0,95.262,11.908,143.469,38.506,180.17,73.4A1045.106,1045.106,0,0,1,12.986,207.169,130.381,130.381,0,0,0,0,200.726" transform="translate(416.419 730.559)" fill="#11445b"/>
      <path id="Pfad_501" data-name="Pfad 501" d="M85.234,0c58.912,0,130.558,5.891,216.043,21.509-34.871,72.85-64.377,148.934-89.3,224.141a709.507,709.507,0,0,0-114.59-9.727A627.455,627.455,0,0,0,0,243.419C20.682,146.828,50.99,63.123,78.265.125,80.646.1,82.827,0,85.234,0" transform="translate(302.155 134.773)" fill="#11445b"/>
      <path id="Pfad_502" data-name="Pfad 502" d="M51.943,0A573.485,573.485,0,0,1,.2,69.09c.025-2.231.175-4.362.175-6.618,0-5.29-.15-10.679-.376-16.119A657.761,657.761,0,0,0,51.943,0" transform="translate(1000.046 876.761)" fill="#11445b"/>
      <path id="Pfad_503" data-name="Pfad 503" d="M0,8.649A457.656,457.656,0,0,0,51.792,0c11.757,15.417,28.7,28.779,49.536,37.628-.351,7.872-.577,15.267-.577,21.384,0,1.3.025,2.306.025,3.51A569.587,569.587,0,0,1,0,8.649" transform="translate(252.669 1035.798)" fill="#11445b"/>
      <path id="Pfad_504" data-name="Pfad 504" d="M82.8,361.894A567.762,567.762,0,0,1,0,65.705c0-3.76.2-7.471.276-11.206.9-1.028,1.68-1.93,3.033-3.409,4.136-4.512,10.4-11.03,18.8-18.877A484.956,484.956,0,0,1,60.717,0c5.465,122.537,35.9,219.678,73.828,294.509A353.25,353.25,0,0,0,82.8,361.894" transform="translate(0 504.889)" fill="#11445b"/>
      <path id="Pfad_505" data-name="Pfad 505" d="M0,236.5A566.569,566.569,0,0,1,73.828,0C62.622,64.527,57.658,124.166,57.658,179.067c0,3.409.15,6.668.2,10.053A501.5,501.5,0,0,0,0,236.5" transform="translate(2.156 286.264)" fill="#11445b"/>
      <path id="Pfad_506" data-name="Pfad 506" d="M68.438,373.4C31.913,299.172,3.234,202.481,0,79.544c4.412-2.958,8.624-5.916,13.362-8.874A548.708,548.708,0,0,1,187.139,0c-11.231,61.444-18.35,127.375-18.4,196.239a963.924,963.924,0,0,0,6.744,113.788A325.977,325.977,0,0,0,68.438,373.4" transform="translate(84.407 408.575)" fill="#11445b"/>
      <path id="Pfad_507" data-name="Pfad 507" d="M127.4,218.976c-1.6-1.329-3.159-2.607-4.838-4.036-22.412-19.178-52.444-48.734-82.5-90.148A586.756,586.756,0,0,1,0,61.093,302.7,302.7,0,0,1,98.771,0,886.661,886.661,0,0,0,149.536,192.78a63.015,63.015,0,0,0-22.136,26.2" transform="translate(164.351 743.094)" fill="#11445b"/>
      <path id="Pfad_508" data-name="Pfad 508" d="M0,188.342A762.1,762.1,0,0,0,140.686,0c16.445,30.609,27.5,55.528,32.94,70.669a565.772,565.772,0,0,1-36.475,144.923l-.2.3c-.777,1.2-1.98,3.033-3.635,5.365-3.259,4.713-8.223,11.557-14.891,20.03a596.709,596.709,0,0,1-60.642,65.605c-7.345,6.869-15.292,13.913-23.665,20.983C29.456,284.231,18.275,236.625,0,188.342" transform="translate(963.672 565.782)" fill="#11445b"/>
      <path id="Pfad_509" data-name="Pfad 509" d="M376.509,156.63c.577.526,1.1,1.078,1.654,1.629-19.4,45.776-44.021,98.445-74.63,154.424-9.225,16.9-19.153,34.119-29.481,51.466C204.236,298.47,113.512,246.627,0,223.79,25.094,148.458,54.725,72.424,89.721,0,203.434,24.091,299.372,84.958,376.509,156.63" transform="translate(538.153 161.02)" fill="#11445b"/>
      <path id="Pfad_510" data-name="Pfad 510" d="M62.446,96.139A628.96,628.96,0,0,0,257.156,0a306.484,306.484,0,0,1-1.905,32.414l-.251.251A569.659,569.659,0,0,1,0,180.17a300.972,300.972,0,0,0,5.239-57.683c0-3.861-.276-7.947-.4-11.908,18.7-3.936,37.929-8.7,57.608-14.44" transform="translate(719.075 941.388)" fill="#11445b"/>
      <path id="Pfad_511" data-name="Pfad 511" d="M304.586,234.218c-5.064,13.587-10.88,28.5-17.323,44.347C210.027,207.946,114.113,147.53,0,121.91A1250.661,1250.661,0,0,1,69.867,0a569.816,569.816,0,0,1,263.6,148.583c-1.228,4.161-3.008,10.153-5.465,17.924-5.039,15.969-12.735,39.132-23.414,67.711" transform="translate(638.93 16.949)" fill="#11445b"/>
      <path id="Pfad_512" data-name="Pfad 512" d="M179.393,0A572.573,572.573,0,0,1,292.578,11.281a1296.177,1296.177,0,0,0-69.29,122.461C135.3,117.3,61.343,110.9,0,110.654,23.164,59.99,42.517,26.347,49.26,15.091A570.744,570.744,0,0,1,179.393,0" transform="translate(391.199 0.002)" fill="#11445b"/>
      <path id="Pfad_513" data-name="Pfad 513" d="M161.544,87.315C89.22,89.17,36.325,99.6,0,110.629A569.306,569.306,0,0,1,204.762,0c-10.679,19.353-26.122,49.11-43.219,87.315" transform="translate(202.982 23.693)" fill="#11445b"/>
      <path id="Pfad_514" data-name="Pfad 514" d="M260.415,203.283A737.922,737.922,0,0,1,123.94,392.528a630.012,630.012,0,0,0-65.354-117.1A587.126,587.126,0,0,0,0,205.239c11.607-19.353,22.662-38.531,32.915-57.282C62.071,94.66,85.836,44.372,104.913,0c68.538,68.162,120.782,143.193,155.5,203.283" transform="translate(829.929 337.329)" fill="#11445b"/>
      <path id="Pfad_515" data-name="Pfad 515" d="M183.654,265.956c-7.846,21.91-16.6,42.692-25.8,62.823A1049.383,1049.383,0,0,0,82.326,219.252,943.718,943.718,0,0,0,0,127.8C23.966,69.716,39.032,24.467,46.6,0A568.853,568.853,0,0,1,183.654,265.956" transform="translate(944.995 185.512)" fill="#11445b"/>
      <path id="Pfad_516" data-name="Pfad 516" d="M23.515,72.474h0c0,4.512-.226,8.975-.351,13.462-3.359-6.944-6.969-14.164-11.03-21.96C8.423,56.906,4.287,49.386,0,41.715,6.543,28.177,12.835,14.314,18.777,0a576.26,576.26,0,0,1,4.738,72.474" transform="translate(1117.694 498.121)" fill="#11445b"/>
      <path id="Pfad_517" data-name="Pfad 517" d="M69.742,45.676l1.329-.852c1.93-1.178,5.014-2.958,9.276-5.114a272.18,272.18,0,0,1,40.662-16.245C153.4,13.136,202.055,2.682,269.816,0,242.29,65.029,212.509,149.912,192.5,247.329A573.711,573.711,0,0,0,.9,323.313c-.3.2-.6.4-.9.577C.451,255.9,8.6,180.32,27.35,96.515a575.011,575.011,0,0,1,42.391-50.84" transform="translate(84.031 135.45)" fill="#11445b"/>
      <path id="Pfad_518" data-name="Pfad 518" d="M34.144,285.459A322.752,322.752,0,0,0,0,240.009C74.931,163.449,136.475,80.321,186.337,0a571.606,571.606,0,0,1,51.893,62.848A601.875,601.875,0,0,1,304.687,183.88c-70.268,65.881-147.68,113.763-221.608,148.307-6.894,3.209-13.738,6.192-20.582,9.2a369.821,369.821,0,0,0-28.353-55.929" transform="translate(630.607 563.876)" fill="#11445b"/>
      <path id="Pfad_519" data-name="Pfad 519" d="M6.844,152.97C84.582,118.375,167.485,69.09,243.017,0c17.673,49.16,27.651,97.217,30.659,139.909-51.04,39.333-117.7,78.29-200.45,102.381-17.874,5.189-35.3,9.5-52.344,13.161A431.563,431.563,0,0,0,0,155.878c2.281-1,4.538-1.88,6.844-2.908" transform="translate(701.526 772.073)" fill="#11445b"/>
      <path id="Pfad_520" data-name="Pfad 520" d="M121.333,84.557C105.841,81.2,88.668,74.129,71.4,64.527,51.867,53.723,32.314,40.06,14.64,26.3,9.526,22.336,4.738,18.375,0,14.465A69.522,69.522,0,0,0,13.913,3.309,669.2,669.2,0,0,0,118.9,11.431,735.931,735.931,0,0,0,247.079,0c.05,2.432.226,4.964.226,7.345.025,25.37-2.883,47.38-7.345,64.051A572.314,572.314,0,0,1,121.333,84.557" transform="translate(452.844 1056.555)" fill="#11445b"/>
      <path id="Pfad_521" data-name="Pfad 521" d="M49.26,202.055A859.079,859.079,0,0,1,0,12.108,326.909,326.909,0,0,1,89.521,0,401.42,401.42,0,0,1,138.38,3.409C121.86,88.468,111.932,157.934,106.593,200.4c-20.331-4.512-40.261-3.71-57.332,1.655" transform="translate(286.412 723.314)" fill="#11445b"/>
      <path id="Pfad_522" data-name="Pfad 522" d="M0,13.813C0,9.7.075,4.989.226,0A113.739,113.739,0,0,0,49.737.15c21.509,18.375,48.358,39.283,76.585,56.029A567.133,567.133,0,0,1,.2,26.723C.1,23.314,0,19.1,0,13.813" transform="translate(377.562 1080.997)" fill="#11445b"/>
      <path id="Pfad_523" data-name="Pfad 523" d="M69.491,152.118A572.841,572.841,0,0,1,0,67.912c.251-.451.326-.677.6-1.2C3.058,62.07,6.819,55.352,11.983,47.255A337.792,337.792,0,0,1,48.909,0,603.98,603.98,0,0,0,87.24,60.115C126,113.487,164.7,148.107,188.894,166.934a73.112,73.112,0,0,0,5.415,25.044c-35.071,7.3-60.742,8.223-69.892,8.273a573,573,0,0,1-54.926-48.132" transform="translate(97.643 821.96)" fill="#11445b"/>
    </g>
  </g>
</svg>
