<svg xmlns="http://www.w3.org/2000/svg" width="61.37" height="61.039" viewBox="0 0 61.37 61.039">
  <g id="Gruppe_235" data-name="Gruppe 235" transform="translate(-340.482 -383.271)">
    <path id="Pfad_238" data-name="Pfad 238" d="M400.352,414.283a11.384,11.384,0,0,0-7.263-10.608A15.82,15.82,0,0,0,364.1,392.292a7.522,7.522,0,0,0-10.482,9.942h-.249v.658a11.39,11.39,0,0,0,0,22.781h36.581v-.05A11.386,11.386,0,0,0,400.352,414.283Z" transform="translate(0)" fill="none" stroke="#28a5bc" stroke-linecap="round" stroke-linejoin="round" stroke-width="3"/>
    <rect id="Rechteck_140" data-name="Rechteck 140" width="12.068" height="7.079" transform="translate(366.452 421.125)" fill="#fff"/>
    <path id="Pfad_239" data-name="Pfad 239" d="M378.247,420.711v25.6l-8.615-8.615,8.615,8.615,8.6-8.6" transform="translate(-5.88 -3.504)" fill="none" stroke="#28a5bc" stroke-linecap="round" stroke-linejoin="round" stroke-width="3"/>
  </g>
</svg>
