<svg xmlns="http://www.w3.org/2000/svg" width="65.245" height="67.882" viewBox="0 0 65.245 67.882">
  <g id="Gruppe_246" data-name="Gruppe 246" transform="translate(-357.34 -393.695)">
    <path id="Pfad_348" data-name="Pfad 348" d="M369.208,422.377h-4.775a1.6,1.6,0,0,0-1.6,1.6v3.053a3.99,3.99,0,0,0-3.99,3.991v5.033a3.99,3.99,0,0,0,3.99,3.991V443.1a1.6,1.6,0,0,0,1.6,1.6h4.775a1.6,1.6,0,0,0,1.6-1.6V423.979A1.6,1.6,0,0,0,369.208,422.377Z" fill="none" stroke="#28a5bc" stroke-linecap="round" stroke-linejoin="round" stroke-width="3"/>
    <path id="Pfad_349" data-name="Pfad 349" d="M410.716,422.231h4.775a1.6,1.6,0,0,1,1.6,1.6v3.053a3.99,3.99,0,0,1,3.991,3.99v5.034a3.99,3.99,0,0,1-3.991,3.99v3.053a1.6,1.6,0,0,1-1.6,1.6h-4.775a1.6,1.6,0,0,1-1.6-1.6v-19.12A1.6,1.6,0,0,1,410.716,422.231Z" fill="none" stroke="#28a5bc" stroke-linecap="round" stroke-linejoin="round" stroke-width="3"/>
    <circle id="Ellipse_103" data-name="Ellipse 103" cx="1.734" cy="1.734" r="1.734" transform="translate(363.091 431.805)" fill="#28a5bc" stroke="#28a5bc" stroke-width="1"/>
    <circle id="Ellipse_104" data-name="Ellipse 104" cx="1.734" cy="1.734" r="1.734" transform="translate(413.365 431.66)" fill="#28a5bc" stroke="#28a5bc" stroke-width="1"/>
    <path id="Pfad_350" data-name="Pfad 350" d="M366.56,422.377v-4.635c-.065-1.494-.309-10.564,6.607-17.023,5.872-5.485,13.077-5.511,16.561-5.524s11.041-.041,17.107,5.762c6.592,6.3,6.564,14.849,6.53,16.453v4.821" fill="none" stroke="#28a5bc" stroke-linecap="round" stroke-linejoin="round" stroke-width="3"/>
    <path id="Pfad_351" data-name="Pfad 351" d="M374.331,399.715l4.71,5.224a21.979,21.979,0,0,1,10.614-2.612,20.743,20.743,0,0,1,10.42,2.612l4.9-5.224" fill="none" stroke="#28a5bc" stroke-linecap="round" stroke-linejoin="round" stroke-width="3"/>
    <path id="Pfad_352" data-name="Pfad 352" d="M389.655,402.327" fill="none" stroke="#28a5bc" stroke-linecap="round" stroke-linejoin="round" stroke-width="3"/>
    <path id="Pfad_353" data-name="Pfad 353" d="M412.794,444.557v3.2s1.247,9.311-9.311,9.311H395.17" fill="none" stroke="#28a5bc" stroke-linecap="round" stroke-linejoin="round" stroke-width="3"/>
    <rect id="Rechteck_163" data-name="Rechteck 163" width="10.769" height="6.752" rx="3.376" transform="translate(384.271 453.324)" fill="none" stroke="#28a5bc" stroke-linecap="round" stroke-linejoin="round" stroke-width="3"/>
  </g>
</svg>
