<svg xmlns="http://www.w3.org/2000/svg" width="30.747" height="22.201" viewBox="0 0 30.747 22.201">
  <g id="Icon_feather-youtube" data-name="Icon feather-youtube" transform="translate(1 1)">
    <path id="Pfad_216" data-name="Pfad 216" d="M29.645,9.162A3.632,3.632,0,0,0,27.11,6.549C24.862,6,15.873,6,15.873,6s-8.99,0-11.237.6A3.632,3.632,0,0,0,2.1,9.214a37.893,37.893,0,0,0-.6,6.912,37.892,37.892,0,0,0,.6,6.964A3.632,3.632,0,0,0,4.636,25.6c2.247.6,11.237.6,11.237.6s8.99,0,11.237-.6a3.632,3.632,0,0,0,2.535-2.613,37.892,37.892,0,0,0,.6-6.86,37.892,37.892,0,0,0-.6-6.964Z" transform="translate(-1.499 -6)" fill="none" stroke="#fff" stroke-linecap="round" stroke-linejoin="round" stroke-width="2"/>
    <path id="Pfad_217" data-name="Pfad 217" d="M14.625,21.265l7.513-4.273L14.625,12.72Z" transform="translate(-3.191 -6.866)" fill="none" stroke="#fff" stroke-linecap="round" stroke-linejoin="round" stroke-width="2"/>
  </g>
</svg>
