<svg xmlns="http://www.w3.org/2000/svg" width="51.125" height="51.217" viewBox="0 0 51.125 51.217">
  <g id="Icon_feather-phone-incoming" data-name="Icon feather-phone-incoming" transform="translate(-1.666 0.621)">
    <path id="Pfad_264" data-name="Pfad 264" d="M24,3V16.644H37.644" transform="translate(10.751 0.774)" fill="none" stroke="#28a5bc" stroke-linecap="round" stroke-linejoin="round" stroke-width="3"/>
    <path id="Pfad_265" data-name="Pfad 265" d="M39.919,1.5,24,17.419" transform="translate(10.751)" fill="none" stroke="#28a5bc" stroke-linecap="round" stroke-linejoin="round" stroke-width="3"/>
    <path id="Pfad_266" data-name="Pfad 266" d="M48.4,36.929v6.822A4.548,4.548,0,0,1,43.438,48.3a45,45,0,0,1-19.625-6.981A44.345,44.345,0,0,1,10.168,27.674,45,45,0,0,1,3.186,7.958,4.548,4.548,0,0,1,7.712,3h6.822a4.548,4.548,0,0,1,4.548,3.911,29.2,29.2,0,0,0,1.592,6.39,4.548,4.548,0,0,1-1.023,4.8l-2.888,2.888A36.385,36.385,0,0,0,30.407,34.633L33.3,31.744a4.548,4.548,0,0,1,4.8-1.023,29.2,29.2,0,0,0,6.39,1.592A4.548,4.548,0,0,1,48.4,36.929Z" transform="translate(0 0.774)" fill="none" stroke="#28a5bc" stroke-linecap="round" stroke-linejoin="round" stroke-width="3"/>
  </g>
</svg>
