<svg id="Komponente_30_8_Hover-Zustand_" data-name="Komponente 30 – 8 (Hover-Zustand)" xmlns="http://www.w3.org/2000/svg" width="59" height="59" viewBox="0 0 59 59">
  <circle id="Ellipse_33" data-name="Ellipse 33" cx="29.5" cy="29.5" r="29.5" fill="#fff" opacity="0.999"/>
  <g id="Icon_feather-instagram" data-name="Icon feather-instagram" transform="translate(12 12)">
    <path id="Pfad_213" data-name="Pfad 213" d="M10.5,3h15A7.5,7.5,0,0,1,33,10.5v15A7.5,7.5,0,0,1,25.5,33h-15A7.5,7.5,0,0,1,3,25.5v-15A7.5,7.5,0,0,1,10.5,3Z" fill="none" stroke="#28a5bc" stroke-linecap="round" stroke-linejoin="round" stroke-width="2"/>
    <path id="Pfad_214" data-name="Pfad 214" d="M24,17.055A6,6,0,1,1,18.945,12,6,6,0,0,1,24,17.055Z" fill="none" stroke="#28a5bc" stroke-linecap="round" stroke-linejoin="round" stroke-width="2"/>
    <path id="Pfad_215" data-name="Pfad 215" d="M26.25,9.75h0" fill="none" stroke="#28a5bc" stroke-linecap="round" stroke-linejoin="round" stroke-width="2"/>
  </g>
</svg>
