<svg xmlns="http://www.w3.org/2000/svg" width="59.078" height="60.234" viewBox="0 0 59.078 60.234">
  <g id="Gruppe_207" data-name="Gruppe 207" transform="translate(-427.478 -82.754)">
    <rect id="Rechteck_142" data-name="Rechteck 142" width="56.078" height="51.603" rx="10.326" transform="translate(428.978 89.885)" fill="none" stroke="#28a5bc" stroke-linecap="round" stroke-linejoin="round" stroke-width="3"/>
    <line id="Linie_83" data-name="Linie 83" x2="56.078" transform="translate(428.978 102.3)" fill="none" stroke="#28a5bc" stroke-linecap="round" stroke-linejoin="round" stroke-width="3"/>
    <line id="Linie_84" data-name="Linie 84" y1="11.165" transform="translate(443.618 84.254)" fill="none" stroke="#28a5bc" stroke-linecap="round" stroke-linejoin="round" stroke-width="3"/>
    <line id="Linie_85" data-name="Linie 85" y1="11.165" transform="translate(470.392 84.303)" fill="none" stroke="#28a5bc" stroke-linecap="round" stroke-linejoin="round" stroke-width="3"/>
    <path id="Pfad_276" data-name="Pfad 276" d="M450.673,131.172a4.758,4.758,0,0,1,1.04-3.212,4.923,4.923,0,0,1,3.6-1.664,5.111,5.111,0,0,1,1.831.257,4.937,4.937,0,0,1,1.891,1.144,4.568,4.568,0,0,1,.9,1.268,4.682,4.682,0,0,1,.429,1.666,4.757,4.757,0,0,1-.841,3.08,5.028,5.028,0,0,1-2.115,1.632,6.657,6.657,0,0,1-1.882.414h-2.83" transform="translate(-7.056 -13.675)" fill="none" stroke="#28a5bc" stroke-linecap="round" stroke-linejoin="round" stroke-width="3"/>
    <path id="Pfad_277" data-name="Pfad 277" d="M476.06,130.6l4.936-5.08v19.445" transform="translate(-15.316 -13.425)" fill="none" stroke="#28a5bc" stroke-linecap="round" stroke-linejoin="round" stroke-width="3"/>
    <line id="Linie_86" data-name="Linie 86" x2="10.171" transform="translate(460.445 131.542)" fill="none" stroke="#28a5bc" stroke-linecap="round" stroke-linejoin="round" stroke-width="3"/>
    <path id="Pfad_278" data-name="Pfad 278" d="M450.673,144.9a4.758,4.758,0,0,0,1.04,3.212,4.923,4.923,0,0,0,3.6,1.664,5.111,5.111,0,0,0,1.831-.257,4.935,4.935,0,0,0,1.891-1.144,4.567,4.567,0,0,0,.9-1.267,4.683,4.683,0,0,0,.429-1.666,4.756,4.756,0,0,0-.841-3.08,5.023,5.023,0,0,0-2.115-1.632,6.657,6.657,0,0,0-1.882-.414h-2.83" transform="translate(-7.056 -18.239)" fill="none" stroke="#28a5bc" stroke-linecap="round" stroke-linejoin="round" stroke-width="3"/>
  </g>
</svg>
