<svg id="Komponente_32_8" data-name="Komponente 32 – 8" xmlns="http://www.w3.org/2000/svg" width="59" height="59" viewBox="0 0 59 59">
  <circle id="Ellipse_33" data-name="Ellipse 33" cx="29.5" cy="29.5" r="29.5" fill="#fff" opacity="0.997"/>
  <g id="Icon_feather-youtube" data-name="Icon feather-youtube" transform="translate(11.5 11.904)">
    <path id="Pfad_216" data-name="Pfad 216" d="M33.81,9.63a4.17,4.17,0,0,0-2.91-3C28.32,6,18,6,18,6S7.68,6,5.1,6.69a4.17,4.17,0,0,0-2.91,3,43.5,43.5,0,0,0-.69,7.935,43.5,43.5,0,0,0,.69,7.995A4.17,4.17,0,0,0,5.1,28.5c2.58.69,12.9.69,12.9.69s10.32,0,12.9-.69a4.17,4.17,0,0,0,2.91-3,43.5,43.5,0,0,0,.69-7.875,43.5,43.5,0,0,0-.69-8Z" fill="none" stroke="#28a5bc" stroke-linecap="round" stroke-linejoin="round" stroke-width="2"/>
    <path id="Pfad_217" data-name="Pfad 217" d="M14.625,22.53l8.625-4.905-8.625-4.9Z" fill="none" stroke="#28a5bc" stroke-linecap="round" stroke-linejoin="round" stroke-width="2"/>
  </g>
</svg>
