<svg xmlns="http://www.w3.org/2000/svg" width="70.53" height="71.787" viewBox="0 0 70.53 71.787">
  <g id="Gruppe_37" data-name="Gruppe 37" transform="translate(-160.072 -428.628)">
    <path id="Pfad_103" data-name="Pfad 103" d="M174.936,536.432a18.161,18.161,0,0,1-13.353,6.185v14.2a10.912,10.912,0,0,0,3.233,7.59c3.443,3.294,10.12,6.606,10.12,6.606" transform="translate(0 -72.604)" fill="none" stroke="#fff" stroke-linecap="round" stroke-linejoin="round" stroke-width="3"/>
    <path id="Pfad_104" data-name="Pfad 104" d="M203.709,536.432a18.161,18.161,0,0,0,13.353,6.185v14.2a10.912,10.912,0,0,1-3.233,7.59c-3.443,3.294-10.12,6.606-10.12,6.606" transform="translate(-28.773 -72.604)" fill="none" stroke="#fff" stroke-linecap="round" stroke-linejoin="round" stroke-width="3"/>
    <path id="Pfad_105" data-name="Pfad 105" d="M184.9,581l4.779,4.779,7.863-7.964" transform="translate(-15.925 -100.868)" fill="none" stroke="#fff" stroke-linecap="round" stroke-linejoin="round" stroke-width="3"/>
    <path id="Pfad_106" data-name="Pfad 106" d="M210.379,516.084a5.453,5.453,0,0,1,4.835-2.333c3.527,0,40.79.031,40.79.031s6.426-.43,6.426,8.388v26.965s-.467,6.406-6.406,6.406H217.888" transform="translate(-33.329 -57.114)" fill="none" stroke="#fff" stroke-linecap="round" stroke-linejoin="round" stroke-width="3"/>
    <path id="Pfad_107" data-name="Pfad 107" d="M235.861,456.639V445.772s.113-15.644,16.668-15.644,17.18,15.473,17.18,15.473v11.065" transform="translate(-50.733)" fill="none" stroke="#fff" stroke-linecap="round" stroke-linejoin="round" stroke-width="3"/>
    <path id="Pfad_108" data-name="Pfad 108" d="M257.9,470.789v-7.546s.067-10.863,9.786-10.863,10.087,10.744,10.087,10.744v7.683" transform="translate(-65.787 -15.198)" fill="none" stroke="#fff" stroke-linecap="round" stroke-linejoin="round" stroke-width="3"/>
    <path id="Pfad_109" data-name="Pfad 109" d="M282.518,554.084a6.059,6.059,0,1,0-8.827,5.384v6.437a2.769,2.769,0,1,0,5.538,0v-6.437A6.053,6.053,0,0,0,282.518,554.084Z" transform="translate(-74.323 -80.523)" fill="none" stroke="#fff" stroke-linecap="round" stroke-linejoin="round" stroke-width="3"/>
  </g>
</svg>
