<svg xmlns="http://www.w3.org/2000/svg" width="84.76" height="81.604" viewBox="0 0 84.76 81.604">
  <g id="Gruppe_58" data-name="Gruppe 58" transform="translate(-122.399 -418.445)">
    <path id="Pfad_140" data-name="Pfad 140" d="M146.069,470.656v-31.77h64.914v31.77" transform="translate(-13.583 -11.605)" fill="none" stroke="#fff" stroke-linecap="round" stroke-linejoin="round" stroke-width="3"/>
    <path id="Pfad_141" data-name="Pfad 141" d="M164.959,512.5h-14.1L123.9,490l4.637-4.637,3.692-3.692" transform="translate(0 -37.82)" fill="none" stroke="#fff" stroke-linecap="round" stroke-linejoin="round" stroke-width="3"/>
    <path id="Pfad_142" data-name="Pfad 142" d="M123.9,503.178v46.367l26.962-23.871" transform="translate(0 -50.996)" fill="none" stroke="#fff" stroke-linecap="round" stroke-linejoin="round" stroke-width="3"/>
    <line id="Linie_48" data-name="Linie 48" x2="40.7" transform="translate(123.899 498.549)" fill="none" stroke="#fff" stroke-linecap="round" stroke-linejoin="round" stroke-width="3"/>
    <path id="Pfad_143" data-name="Pfad 143" d="M228.982,512.554h14.1l26.962-22.5-4.637-4.637-3.657-3.657" transform="translate(-64.383 -37.875)" fill="none" stroke="#fff" stroke-linecap="round" stroke-linejoin="round" stroke-width="3"/>
    <path id="Pfad_144" data-name="Pfad 144" d="M292.343,503.178v46.367l-26.962-23.871" transform="translate(-86.684 -50.996)" fill="none" stroke="#fff" stroke-linecap="round" stroke-linejoin="round" stroke-width="3"/>
    <line id="Linie_49" data-name="Linie 49" x1="40.7" transform="translate(164.959 498.549)" fill="none" stroke="#fff" stroke-linecap="round" stroke-linejoin="round" stroke-width="3"/>
    <path id="Pfad_145" data-name="Pfad 145" d="M208.586,426.986l8.243-7.041,7.9,7.041" transform="translate(-51.887)" fill="none" stroke="#fff" stroke-linecap="round" stroke-linejoin="round" stroke-width="3"/>
    <path id="Pfad_146" data-name="Pfad 146" d="M215.9,485.541a15.52,15.52,0,0,1-7.213,1.2,13.605,13.605,0,0,1-6.869-2.232c-5.283-3.617-5.65-10.052-5.667-10.476a14.163,14.163,0,0,1,4.121-10.3c.76-.774,4.623-4.708,10.476-4.293,1.01.072,6.334.574,9.273,5.152,2.383,3.711,1.571,7.564,1.031,10.132-.391,1.857-.994,4.72-3.091,5.5a3.7,3.7,0,0,1-3.263-.344,3.594,3.594,0,0,1-1.374-1.889l1.2-11.849" transform="translate(-44.263 -24.178)" fill="none" stroke="#fff" stroke-linecap="round" stroke-linejoin="round" stroke-width="3"/>
    <path id="Pfad_147" data-name="Pfad 147" d="M223.637,488.471a4.908,4.908,0,0,1-2.748,1.717,5.808,5.808,0,0,1-5.839-.516c-2.25-1.7-2.106-4.59-2.061-5.5a7.8,7.8,0,0,1,2.061-4.809,8.122,8.122,0,0,1,4.121-2.4,5.341,5.341,0,0,1,5.355,2.733" transform="translate(-54.572 -34.914)" fill="none" stroke="#fff" stroke-linecap="round" stroke-linejoin="round" stroke-width="3"/>
  </g>
</svg>
