<svg xmlns="http://www.w3.org/2000/svg" width="73.195" height="87.149" viewBox="0 0 73.195 87.149">
  <g id="Gruppe_222" data-name="Gruppe 222" transform="translate(312.892 -707.147) rotate(45)">
    <path id="Pfad_310" data-name="Pfad 310" d="M320.765,715.95h21.291l-5.887,49.294h-9.652Z" transform="translate(-0.873 -5.856)" fill="none" stroke="#28a5bc" stroke-linecap="round" stroke-linejoin="round" stroke-width="3"/>
    <path id="Pfad_311" data-name="Pfad 311" d="M341.17,710.094a14.139,14.139,0,1,0-21.265,0Z" transform="translate(0 0)" fill="none" stroke="#28a5bc" stroke-linecap="round" stroke-linejoin="round" stroke-width="3"/>
    <line id="Linie_104" data-name="Linie 104" x2="27.887" transform="translate(316.595 703.12)" fill="none" stroke="#28a5bc" stroke-linecap="round" stroke-linejoin="round" stroke-width="3"/>
    <line id="Linie_105" data-name="Linie 105" x2="12.032" transform="translate(324.467 749.307)" fill="none" stroke="#28a5bc" stroke-linecap="round" stroke-linejoin="round" stroke-width="3"/>
    <line id="Linie_106" data-name="Linie 106" y2="4.486" transform="translate(330.537 720.1)" fill="none" stroke="#28a5bc" stroke-linecap="round" stroke-linejoin="round" stroke-width="3"/>
    <path id="Pfad_312" data-name="Pfad 312" d="M334,776.756a6.371,6.371,0,0,0,4.541,6.117,6.306,6.306,0,0,0,6.27-1.871L348,776.756a6.811,6.811,0,0,1,5.211-3.212,6.4,6.4,0,0,1,4.228,1.444" transform="translate(-3.519 -17.368)" fill="none" stroke="#28a5bc" stroke-linecap="round" stroke-linejoin="round" stroke-width="3"/>
  </g>
</svg>
