<svg xmlns="http://www.w3.org/2000/svg" width="54.626" height="63.852" viewBox="0 0 54.626 63.852">
  <g id="Gruppe_280" data-name="Gruppe 280" transform="translate(-266.214 -385.176)">
    <path id="Pfad_417" data-name="Pfad 417" d="M288.67,402.572a1.6,1.6,0,0,0-.847,1.414v10.423a1.6,1.6,0,0,0,2.493,1.334l7.817-5.211a1.6,1.6,0,0,0,0-2.668l-7.817-5.211A1.6,1.6,0,0,0,288.67,402.572Zm2.36,4.411,3.322,2.215-3.322,2.215Z" transform="translate(1.491 1.187)" fill="#28a5bc"/>
    <path id="Pfad_418" data-name="Pfad 418" d="M300.783,417.781a11.431,11.431,0,1,1-3.381-18.486v-3.44a14.626,14.626,0,1,0,9.935,13.848,14.838,14.838,0,0,0-.213-2.393h-3.25a11.53,11.53,0,0,1,.255,2.393A11.381,11.381,0,0,1,300.783,417.781Z" transform="translate(0.818 0.683)" fill="#28a5bc"/>
    <path id="Pfad_419" data-name="Pfad 419" d="M294.792,432.955a1.867,1.867,0,0,0-.423,0h-2.086v3.569h2.086a1.8,1.8,0,1,0,.423-3.569Z" transform="translate(1.799 3.296)" fill="#28a5bc"/>
    <path id="Pfad_420" data-name="Pfad 420" d="M302.972,438.532v-4.657l-3.349,4.657Z" transform="translate(2.305 3.361)" fill="#28a5bc"/>
    <path id="Pfad_421" data-name="Pfad 421" d="M320.832,403.331a1.459,1.459,0,0,0-.017-.166c-.005-.048-.005-.1-.015-.143a1.539,1.539,0,0,0-.046-.151,1.6,1.6,0,0,0-.391-.667l-12.732-12.735-3.822-3.824a1.594,1.594,0,0,0-1.134-.469h-29.2a7.261,7.261,0,0,0-7.261,7.258v49.335a7.264,7.264,0,0,0,7.26,7.26h40.1a7.261,7.261,0,0,0,7.261-7.259V404.8a.884.884,0,0,0,.009-.093Zm-17.943-14.069,2.823,2.824,11.025,11.03h-12.2a1.648,1.648,0,0,1-1.645-1.646Zm-12.9,56.11h-1.424v-8.107l-3.553,8.107H283.69l-3.525-8.107v8.107h-1.425V434.96h1.951l3.672,8.478,3.7-8.478h1.924Zm6.713-4.259h-2.621v4.259h-1.439V434.96h3.789a3.08,3.08,0,0,1,.272,6.153Zm11.6,2.115h-1.63v2.15h-1.4v-2.15h-4.669l0-1.66,4.087-5.713h1.982v6.037h1.63Zm9.319-11.746h-48.2V392.435a4.053,4.053,0,0,1,4.054-4.052h26.207v13.088a4.856,4.856,0,0,0,4.852,4.852h13.091Z" fill="#28a5bc"/>
  </g>
</svg>
