<svg xmlns="http://www.w3.org/2000/svg" width="68.167" height="68.292" viewBox="0 0 68.167 68.292">
  <path id="Icon_feather-phone-call" data-name="Icon feather-phone-call" d="M43.433,13.948A15.561,15.561,0,0,1,55.726,26.241M43.433,1.5A28.009,28.009,0,0,1,68.174,26.21M65.062,51.045v9.336a6.224,6.224,0,0,1-6.784,6.224A61.589,61.589,0,0,1,31.42,57.051,60.686,60.686,0,0,1,12.747,38.379,61.589,61.589,0,0,1,3.193,11.4,6.224,6.224,0,0,1,9.386,4.612h9.336a6.224,6.224,0,0,1,6.224,5.353,39.959,39.959,0,0,0,2.178,8.745,6.224,6.224,0,0,1-1.4,6.567l-3.952,3.952A49.794,49.794,0,0,0,40.445,47.9L44.4,43.949a6.224,6.224,0,0,1,6.567-1.4,39.959,39.959,0,0,0,8.745,2.178A6.224,6.224,0,0,1,65.062,51.045Z" transform="translate(-1.665 0.156)" fill="none" stroke="#fff" stroke-linecap="round" stroke-linejoin="round" stroke-width="3"/>
</svg>
