<svg xmlns="http://www.w3.org/2000/svg" width="49.738" height="50.45" viewBox="0 0 49.738 50.45">
  <g id="Icon_feather-phone-forwarded" data-name="Icon feather-phone-forwarded" transform="translate(-1.666 0.621)">
    <path id="Pfad_267" data-name="Pfad 267" d="M28.5,1.5l8.95,8.95L28.5,19.4" transform="translate(12.454)" fill="none" stroke="#28a5bc" stroke-linecap="round" stroke-linejoin="round" stroke-width="3"/>
    <path id="Pfad_268" data-name="Pfad 268" d="M22.5,7.5H40.4" transform="translate(9.504 2.95)" fill="none" stroke="#28a5bc" stroke-linecap="round" stroke-linejoin="round" stroke-width="3"/>
    <path id="Pfad_269" data-name="Pfad 269" d="M47.667,36.383V43.1a4.475,4.475,0,0,1-4.878,4.475A44.279,44.279,0,0,1,23.48,40.7,43.63,43.63,0,0,1,10.055,27.276a44.279,44.279,0,0,1-6.869-19.4A4.475,4.475,0,0,1,7.639,3h6.712a4.475,4.475,0,0,1,4.475,3.848,28.729,28.729,0,0,0,1.566,6.287,4.475,4.475,0,0,1-1.007,4.721L16.544,20.7A35.8,35.8,0,0,0,29.968,34.123l2.842-2.842a4.475,4.475,0,0,1,4.721-1.007,28.729,28.729,0,0,0,6.287,1.566A4.475,4.475,0,0,1,47.667,36.383Z" transform="translate(0 0.737)" fill="none" stroke="#28a5bc" stroke-linecap="round" stroke-linejoin="round" stroke-width="3"/>
  </g>
</svg>
