<svg xmlns="http://www.w3.org/2000/svg" width="60.511" height="72.501" viewBox="0 0 60.511 72.501">
  <g id="Gruppe_289" data-name="Gruppe 289" transform="translate(-266.919 -385.018)">
    <path id="Pfad_430" data-name="Pfad 430" d="M280.428,392.171v14.636a16.755,16.755,0,1,0,33.51,0V392.171Z" fill="none" stroke="#28a5bc" stroke-linecap="round" stroke-linejoin="round" stroke-width="3"/>
    <path id="Pfad_431" data-name="Pfad 431" d="M293.818,423.279v5.92s.257,3.511-2.494,4.662a4.534,4.534,0,0,0-2.751,4" fill="none" stroke="#28a5bc" stroke-linecap="round" stroke-linejoin="round" stroke-width="3"/>
    <path id="Pfad_432" data-name="Pfad 432" d="M300.461,423.279v5.92s-.257,3.511,2.494,4.662a4.538,4.538,0,0,1,2.751,4" fill="none" stroke="#28a5bc" stroke-linecap="round" stroke-linejoin="round" stroke-width="3"/>
    <rect id="Rechteck_180" data-name="Rechteck 180" width="28.599" height="17.126" transform="translate(282.884 438.893)" fill="none" stroke="#28a5bc" stroke-linecap="round" stroke-linejoin="round" stroke-width="3"/>
    <line id="Linie_215" data-name="Linie 215" x2="40.154" transform="translate(277.106 456.019)" fill="none" stroke="#28a5bc" stroke-linecap="round" stroke-linejoin="round" stroke-width="3"/>
    <path id="Pfad_435" data-name="Pfad 435" d="M313.96,392.171s.787-5.653,6.274-5.653,5.695,5.7,5.695,5.7v4.531s.152,16.839-13.425,16.839" fill="none" stroke="#28a5bc" stroke-linecap="round" stroke-linejoin="round" stroke-width="3"/>
    <g id="Gruppe_285" data-name="Gruppe 285">
      <path id="Pfad_437" data-name="Pfad 437" d="M286.864,403.189a4.665,4.665,0,0,1-.1-.882,4.3,4.3,0,0,1,4.326-4.273c.109,0,.217.005.326.014,2.846,0,4.593,1.884,4.593,4.1a4.577,4.577,0,0,1-2.473,3.946l-2.453,1.491a2.591,2.591,0,0,0-1.1,1.159h6.106v2.335h-9.422a5.812,5.812,0,0,1,3-5.437l2.1-1.257a2.481,2.481,0,0,0,1.512-2.2,1.742,1.742,0,0,0-1.728-1.756,1.6,1.6,0,0,0-.2.009,1.923,1.923,0,0,0-2.03,1.808,1.9,1.9,0,0,0,.008.311,2.766,2.766,0,0,0,.1.707Z" fill="#28a5bc"/>
      <path id="Pfad_438" data-name="Pfad 438" d="M298.627,400.186a4.813,4.813,0,0,1,4.2-2.138,4.757,4.757,0,0,1,4.181,2.138,9.605,9.605,0,0,1,0,9.069,4.755,4.755,0,0,1-4.181,2.14,4.812,4.812,0,0,1-4.2-2.14,9.747,9.747,0,0,1,0-9.069Zm2.276,7.774A2.126,2.126,0,0,0,302.827,409a2.07,2.07,0,0,0,1.9-1.039,7.785,7.785,0,0,0,0-6.478,2.073,2.073,0,0,0-1.9-1.04,2.126,2.126,0,0,0-1.924,1.04A7.987,7.987,0,0,0,300.9,407.96Z" fill="#28a5bc"/>
    </g>
    <g id="Gruppe_286" data-name="Gruppe 286">
      <path id="Pfad_439" data-name="Pfad 439" d="M286.507,448.055l.806-.165v.454a.72.72,0,0,0,.608.82.682.682,0,0,0,.143.007.7.7,0,0,0,.721-.677.63.63,0,0,0-.005-.115v-3.416h.826v3.4a1.521,1.521,0,0,1-1.449,1.589c-.029,0-.058,0-.086,0a1.471,1.471,0,0,1-1.565-1.373,1.392,1.392,0,0,1,0-.2Z" fill="#28a5bc"/>
      <path id="Pfad_440" data-name="Pfad 440" d="M293.41,448.62h-2.066l-.455,1.226h-.874l1.9-4.883h.957l1.9,4.883h-.9Zm-1.777-.764h1.487l-.743-2Z" fill="#28a5bc"/>
      <path id="Pfad_441" data-name="Pfad 441" d="M298.55,449.846v-2.087h-2.293v2.087h-.827v-4.883h.827v2.018h2.293v-2.018h.833v4.883Z" fill="#28a5bc"/>
      <path id="Pfad_442" data-name="Pfad 442" d="M302,447.918h-.606v1.928h-.833v-4.883h1.873a1.441,1.441,0,0,1,1.526,1.35c0,.043,0,.087,0,.13a1.379,1.379,0,0,1-1.1,1.392l1.1,2.011h-.937Zm.282-.73a.753.753,0,1,0,.181-1.495.784.784,0,0,0-.181,0h-.888v1.495Z" fill="#28a5bc"/>
      <path id="Pfad_443" data-name="Pfad 443" d="M304.839,449.846v-4.883h3.016v.771h-2.186v1.292h1.983v.751h-1.983v1.295h2.19v.771Z" fill="#28a5bc"/>
    </g>
    <path id="Pfad_435-2" data-name="Pfad 435" d="M281.844,413.588c-13.577,0-13.424-16.839-13.424-16.839v-4.531s.208-5.7,5.695-5.7,6.274,5.653,6.274,5.653" fill="none" stroke="#28a5bc" stroke-linecap="round" stroke-linejoin="round" stroke-width="3"/>
  </g>
</svg>
