<svg xmlns="http://www.w3.org/2000/svg" width="78.385" height="35.408" viewBox="0 0 78.385 35.408">
  <g id="Gruppe_213" data-name="Gruppe 213" transform="translate(-131.991 -520.813)">
    <rect id="Rechteck_144" data-name="Rechteck 144" width="75.385" height="32.408" rx="3.737" transform="translate(133.491 522.313)" fill="none" stroke="#28a5bc" stroke-linecap="round" stroke-linejoin="round" stroke-width="3"/>
    <circle id="Ellipse_83" data-name="Ellipse 83" cx="6.042" cy="6.042" r="6.042" transform="translate(142.406 532.475)" fill="#fff" stroke="#28a5bc" stroke-width="3"/>
    <g id="Gruppe_212" data-name="Gruppe 212" transform="translate(162.844 530.836)">
      <path id="Pfad_285" data-name="Pfad 285" d="M210.892,553.232h-2.256V559.4H206.53v-15.09h5.682a4.37,4.37,0,0,1,4.618,4.491,4.224,4.224,0,0,1-3.661,4.278l3.6,6.321H214.34Zm.937-1.873a2.6,2.6,0,1,0,0-5.171h-3.193v5.171Z" transform="translate(-206.53 -543.995)" fill="#28a5bc" stroke="#28a5bc" stroke-width="1"/>
      <path id="Pfad_286" data-name="Pfad 286" d="M239.327,559.4v-15.09H248.5v1.937h-7.087v4.64h6.427v1.958h-6.427v4.618H248.5V559.4Z" transform="translate(-226.146 -543.995)" fill="#28a5bc" stroke="#28a5bc" stroke-width="1"/>
      <path id="Pfad_287" data-name="Pfad 287" d="M267.464,551.374a7.478,7.478,0,0,1,7.492-7.853c3.448,0,5.875,1.872,6.641,4.788l-1.937.681a4.47,4.47,0,0,0-4.7-3.554c-2.745,0-5.363,2-5.363,5.938s2.618,5.959,5.363,5.959a4.8,4.8,0,0,0,4.81-3.618l1.851.681a6.586,6.586,0,0,1-6.661,4.852C271.06,559.248,267.464,556.418,267.464,551.374Z" transform="translate(-242.976 -543.521)" fill="#28a5bc" stroke="#28a5bc" stroke-width="1"/>
    </g>
  </g>
</svg>
