<svg xmlns="http://www.w3.org/2000/svg" width="69.424" height="74.19" viewBox="0 0 69.424 74.19">
  <g id="Gruppe_227" data-name="Gruppe 227" transform="translate(-162.084 -327.341)">
    <rect id="Rechteck_157" data-name="Rechteck 157" width="44.174" height="63.349" transform="translate(176.763 336.682)" fill="none" stroke="#28a5bc" stroke-linecap="round" stroke-linejoin="round" stroke-width="3"/>
    <path id="Pfad_319" data-name="Pfad 319" d="M239.1,362.975A11.606,11.606,0,0,0,227.5,351.369v11.606Z" transform="translate(-25.268 -8.907)" fill="none" stroke="#28a5bc" stroke-linecap="round" stroke-linejoin="round" stroke-width="3"/>
    <path id="Pfad_320" data-name="Pfad 320" d="M214.134,357.336c-.095,0-.187-.014-.283-.014a11.606,11.606,0,1,0,11.606,11.606H214.134Z" transform="translate(-15.285 -11.26)" fill="none" stroke="#28a5bc" stroke-linecap="round" stroke-linejoin="round" stroke-width="3"/>
    <line id="Linie_117" data-name="Linie 117" x2="24.024" transform="translate(186.478 378.659)" fill="none" stroke="#28a5bc" stroke-linecap="round" stroke-linejoin="round" stroke-width="3"/>
    <line id="Linie_118" data-name="Linie 118" x2="5.807" transform="translate(186.838 390.498)" fill="none" stroke="#28a5bc" stroke-linecap="round" stroke-linejoin="round" stroke-width="3"/>
    <line id="Linie_119" data-name="Linie 119" x2="10.847" transform="translate(199.326 390.498)" fill="none" stroke="#28a5bc" stroke-linecap="round" stroke-linejoin="round" stroke-width="3"/>
    <line id="Linie_120" data-name="Linie 120" x1="5.807" transform="translate(204.366 384.578)" fill="none" stroke="#28a5bc" stroke-linecap="round" stroke-linejoin="round" stroke-width="3"/>
    <line id="Linie_121" data-name="Linie 121" x1="10.847" transform="translate(186.838 384.578)" fill="none" stroke="#28a5bc" stroke-linecap="round" stroke-linejoin="round" stroke-width="3"/>
    <path id="Pfad_321" data-name="Pfad 321" d="M172.622,352.744l-9.038,4.305,9.533,20.758" transform="translate(0 -9.45)" fill="none" stroke="#28a5bc" stroke-linecap="round" stroke-linejoin="round" stroke-width="3"/>
    <path id="Pfad_322" data-name="Pfad 322" d="M214.7,333.453l9.877-4.613,2.117,3.844" transform="translate(-20.208)" fill="none" stroke="#28a5bc" stroke-linecap="round" stroke-linejoin="round" stroke-width="3"/>
    <path id="Pfad_323" data-name="Pfad 323" d="M264.539,404.112l5.382,11.532-5.382,2.921" transform="translate(-39.912 -29.758)" fill="none" stroke="#28a5bc" stroke-linecap="round" stroke-linejoin="round" stroke-width="3"/>
  </g>
</svg>
