<svg xmlns="http://www.w3.org/2000/svg" width="69.985" height="59.347" viewBox="0 0 69.985 59.347">
  <g id="Gruppe_226" data-name="Gruppe 226" transform="translate(-329.905 -219.016)">
    <path id="Pfad_316" data-name="Pfad 316" d="M382.279,265.809s-12.869-6.837-15.483-8.647a8.242,8.242,0,0,1-3.217-3.62v-4.625L331.4,232.026s6.233-7.44,15.283-3.217,25.537,12.467,25.537,12.467v8.847l23.125,12.87a8.971,8.971,0,0,1,3.016,6.033c.023.358.221,4.684-3.016,7.038A7.886,7.886,0,0,1,385.7,263.6" transform="translate(0 -0.64)" fill="none" stroke="#28a5bc" stroke-linecap="round" stroke-linejoin="round" stroke-width="3"/>
    <path id="Pfad_317" data-name="Pfad 317" d="M357.144,255.379,331.4,270.611s7.44,7.842,18.5,1.81,20.008-10.785,20.008-10.785" transform="translate(0 -3.231)" fill="none" stroke="#28a5bc" stroke-linecap="round" stroke-linejoin="round" stroke-width="3"/>
    <path id="Pfad_318" data-name="Pfad 318" d="M376.409,246.818,399.936,234a7.509,7.509,0,0,0-2.614-12.869,8.563,8.563,0,0,0-7.44.8c-2.405,1.622-4.271,4.847-3.419,8.043A7.221,7.221,0,0,0,389.479,234" transform="translate(-4.184)" fill="none" stroke="#28a5bc" stroke-linecap="round" stroke-linejoin="round" stroke-width="3"/>
    <line id="Linie_116" data-name="Linie 116" x1="8.337" y2="4.579" transform="translate(374.638 231.607)" fill="none" stroke="#28a5bc" stroke-linecap="round" stroke-linejoin="round" stroke-width="3"/>
  </g>
</svg>
