<svg xmlns="http://www.w3.org/2000/svg" width="78.488" height="72.3" viewBox="0 0 78.488 72.3">
  <g id="Gruppe_219" data-name="Gruppe 219" transform="translate(-253.413 -472.691)">
    <path id="Pfad_301" data-name="Pfad 301" d="M294.673,528.43" transform="translate(-13.922 -18.992)" fill="none" stroke="#1a97b0" stroke-linecap="round" stroke-linejoin="round" stroke-width="3"/>
    <path id="Pfad_302" data-name="Pfad 302" d="M294.583,474.191H261.926a7.013,7.013,0,0,0-7.013,7.013v21.221a7.013,7.013,0,0,0,7.013,7.013h3.364v8.729s.028,2.084,1.737,2.084c0,0,1.259.7,3.637-1.681s8.994-9.132,8.994-9.132h14.924a7.012,7.012,0,0,0,7.012-7.013V481.2A7.013,7.013,0,0,0,294.583,474.191Z" transform="translate(0 0)" fill="none" stroke="#28a5bc" stroke-linecap="round" stroke-linejoin="round" stroke-width="3"/>
    <path id="Pfad_303" data-name="Pfad 303" d="M283.8,490.641a4.975,4.975,0,0,1,1.864-2.377,4.8,4.8,0,0,1,5.525.128A3.867,3.867,0,0,1,292.278,490a4.414,4.414,0,0,1-.118,3.111c-.295.661-.5.639-2.052,2.245-1.747,1.814-2.033,2.419-2.183,2.89a4.51,4.51,0,0,0-.144,2.033" transform="translate(-10.114 -4.644)" fill="none" stroke="#28a5bc" stroke-linecap="round" stroke-linejoin="round" stroke-width="3"/>
    <circle id="Ellipse_89" data-name="Ellipse 89" cx="1.592" cy="1.592" r="1.592" transform="translate(276.125 498.654)" fill="#28a5bc"/>
    <circle id="Ellipse_90" data-name="Ellipse 90" cx="2.34" cy="2.34" r="2.34" transform="translate(304.558 514.059)" fill="#28a5bc"/>
    <circle id="Ellipse_91" data-name="Ellipse 91" cx="2.34" cy="2.34" r="2.34" transform="translate(313.006 514.059)" fill="#28a5bc"/>
    <circle id="Ellipse_92" data-name="Ellipse 92" cx="2.34" cy="2.34" r="2.34" transform="translate(296.109 514.059)" fill="#28a5bc"/>
    <path id="Pfad_304" data-name="Pfad 304" d="M338.909,509.7H317.117v5.156a7.012,7.012,0,0,1-7.012,7.013H299.24v16.065a7.013,7.013,0,0,0,7.012,7.013h14.924s6.617,6.755,8.994,9.132,3.637,1.681,3.637,1.681c1.709,0,1.737-2.084,1.737-2.084v-8.729h3.364a7.013,7.013,0,0,0,7.013-7.013V516.716A7.013,7.013,0,0,0,338.909,509.7Z" transform="translate(-15.521 -12.435)" fill="none" stroke="#28a5bc" stroke-linecap="round" stroke-linejoin="round" stroke-width="3"/>
  </g>
</svg>
