<svg xmlns="http://www.w3.org/2000/svg" width="69.377" height="70.622" viewBox="0 0 69.377 70.622">
  <g id="Gruppe_262" data-name="Gruppe 262" transform="translate(-160.072 -428.628)">
    <path id="Pfad_103" data-name="Pfad 103" d="M174.708,536.432a17.851,17.851,0,0,1-13.125,6.079v13.954a10.725,10.725,0,0,0,3.178,7.461c3.384,3.238,9.947,6.493,9.947,6.493" transform="translate(0 -73.18)" fill="none" stroke="#28a5bc" stroke-linecap="round" stroke-linejoin="round" stroke-width="3"/>
    <path id="Pfad_104" data-name="Pfad 104" d="M203.709,536.432a17.851,17.851,0,0,0,13.125,6.079v13.954a10.725,10.725,0,0,1-3.178,7.461c-3.384,3.238-9.947,6.493-9.947,6.493" transform="translate(-29.001 -73.18)" fill="none" stroke="#28a5bc" stroke-linecap="round" stroke-linejoin="round" stroke-width="3"/>
    <path id="Pfad_105" data-name="Pfad 105" d="M184.9,580.945l4.7,4.7,7.728-7.828" transform="translate(-16.051 -101.667)" fill="none" stroke="#28a5bc" stroke-linecap="round" stroke-linejoin="round" stroke-width="3"/>
    <path id="Pfad_106" data-name="Pfad 106" d="M210.379,516.044a5.36,5.36,0,0,1,4.753-2.293c3.467,0,40.094.031,40.094.031s6.316-.422,6.316,8.245v26.5s-.459,6.3-6.3,6.3H217.76" transform="translate(-33.593 -57.566)" fill="none" stroke="#28a5bc" stroke-linecap="round" stroke-linejoin="round" stroke-width="3"/>
    <path id="Pfad_107" data-name="Pfad 107" d="M235.861,456.186V445.5s.112-15.377,16.383-15.377,16.887,15.209,16.887,15.209v10.876" transform="translate(-51.135)" fill="none" stroke="#28a5bc" stroke-linecap="round" stroke-linejoin="round" stroke-width="3"/>
    <path id="Pfad_108" data-name="Pfad 108" d="M257.9,470.474v-7.417s.066-10.677,9.619-10.677,9.914,10.561,9.914,10.561v7.552" transform="translate(-66.308 -15.318)" fill="none" stroke="#28a5bc" stroke-linecap="round" stroke-linejoin="round" stroke-width="3"/>
    <path id="Pfad_109" data-name="Pfad 109" d="M282.311,553.981a5.955,5.955,0,1,0-8.677,5.293V565.6a2.722,2.722,0,1,0,5.443,0v-6.327A5.95,5.95,0,0,0,282.311,553.981Z" transform="translate(-74.912 -81.161)" fill="none" stroke="#28a5bc" stroke-linecap="round" stroke-linejoin="round" stroke-width="3"/>
  </g>
</svg>
