<svg xmlns="http://www.w3.org/2000/svg" width="91.208" height="53.925" viewBox="0 0 91.208 53.925">
  <g id="Gruppe_281" data-name="Gruppe 281" transform="translate(-389.336 -307.527)">
    <path id="Pfad_422" data-name="Pfad 422" d="M453.144,339.85l23.7-24.18a3.907,3.907,0,0,0-5.581-5.471l-23.7,24.18Z" transform="translate(1.083)" fill="none" stroke="#2f2f2e" stroke-linecap="round" stroke-linejoin="round" stroke-width="3"/>
    <path id="Pfad_423" data-name="Pfad 423" d="M447.658,333.9l-5.082,10.768,10.663-5.3" transform="translate(0.988 0.475)" fill="none" stroke="#2f2f2e" stroke-linecap="round" stroke-linejoin="round" stroke-width="3"/>
    <path id="Pfad_424" data-name="Pfad 424" d="M409.647,344.234a35.165,35.165,0,0,0,10.754-6.218,19.624,19.624,0,0,0,6.393-10.479,1.186,1.186,0,0,0-.113-1.016,1.209,1.209,0,0,0-.572-.308,7.345,7.345,0,0,0-4.468-.441c-1.607.526-2.655,2.059-3.4,3.575a22.345,22.345,0,0,0-2.013,13.3,3.823,3.823,0,0,0,1.166,2.533,3.075,3.075,0,0,0,3.473-.222,30.966,30.966,0,0,0,2.732-2.513,15.985,15.985,0,0,1-.547,2.849c-.138.961.219,2.156,1.165,2.377a2.178,2.178,0,0,0,1.633-.463,7.394,7.394,0,0,0,2.474-2.771,4.409,4.409,0,0,0,1.9,3.121,8,8,0,0,0,3.5,1.294,9.111,9.111,0,0,0,2.688.047c2.661-.4,4.812-2.3,6.8-4.116" transform="translate(0.359 0.316)" fill="none" stroke="#2f2f2e" stroke-linecap="round" stroke-linejoin="round" stroke-width="3"/>
    <path id="Pfad_425" data-name="Pfad 425" d="M469.357,311.837l-6.843,6.982-1.982,2.022,5.581,5.47" transform="translate(1.331 0.054)" fill="none" stroke="#2f2f2e" stroke-linecap="round" stroke-linejoin="round" stroke-width="3"/>
    <path id="Pfad_426" data-name="Pfad 426" d="M454.113,339.693l-5.581-5.471,13.95-14.234v-1.958a.8.8,0,0,0-.8-.8H397.6a.8.8,0,0,0-.8.8v35.493a.8.8,0,0,0,.8.8h64.082a.8.8,0,0,0,.8-.8v-22.37Z" transform="translate(0.114 0.157)" fill="none" stroke="#2f2f2e" stroke-linecap="round" stroke-linejoin="round" stroke-width="3"/>
    <path id="Pfad_427" data-name="Pfad 427" d="M454.227,339.8l-5.581-5.471,19.032-19.418a6.477,6.477,0,0,0-5.492-3.045H397.323a6.487,6.487,0,0,0-6.487,6.487v35.063a6.487,6.487,0,0,0,6.487,6.487h64.864a6.486,6.486,0,0,0,6.487-6.487V325.056Z" transform="translate(0 0.054)" fill="none" stroke="#2f2f2e" stroke-linecap="round" stroke-linejoin="round" stroke-width="3"/>
  </g>
</svg>
