<svg xmlns="http://www.w3.org/2000/svg" width="86.253" height="53.926" viewBox="0 0 86.253 53.926">
  <g id="Gruppe_288" data-name="Gruppe 288" transform="translate(-389.336 -307.527)">
    <path id="Pfad_422" data-name="Pfad 422" d="M452.83,339.85,475.2,315.67a4.073,4.073,0,0,0-.052-5.526,3.544,3.544,0,0,0-5.215.055l-22.368,24.18Z" transform="translate(-2.164)" fill="none" stroke="#28a5bc" stroke-linecap="round" stroke-linejoin="round" stroke-width="3"/>
    <path id="Pfad_423" data-name="Pfad 423" d="M447.372,333.9l-4.8,10.768,10.064-5.3" transform="translate(-1.974 0.475)" fill="none" stroke="#28a5bc" stroke-linecap="round" stroke-linejoin="round" stroke-width="3"/>
    <path id="Pfad_424" data-name="Pfad 424" d="M409.647,344.234a32.793,32.793,0,0,0,10.149-6.218,19.848,19.848,0,0,0,6.034-10.479,1.248,1.248,0,0,0-.107-1.016,1.123,1.123,0,0,0-.54-.308,6.573,6.573,0,0,0-4.217-.441c-1.517.526-2.506,2.059-3.212,3.575a23.531,23.531,0,0,0-1.9,13.3,3.923,3.923,0,0,0,1.1,2.533,2.77,2.77,0,0,0,3.278-.222,29.941,29.941,0,0,0,2.579-2.513,16.827,16.827,0,0,1-.517,2.849c-.13.961.207,2.156,1.1,2.377a1.974,1.974,0,0,0,1.541-.463,7.269,7.269,0,0,0,2.335-2.771,4.456,4.456,0,0,0,1.791,3.121,7.3,7.3,0,0,0,3.306,1.294,8.122,8.122,0,0,0,2.537.047c2.511-.4,4.542-2.3,6.414-4.116" transform="translate(-0.718 0.316)" fill="none" stroke="#28a5bc" stroke-linecap="round" stroke-linejoin="round" stroke-width="3"/>
    <path id="Pfad_425" data-name="Pfad 425" d="M468.861,311.837l-6.459,6.982-1.87,2.022,5.268,5.47" transform="translate(-2.659 0.054)" fill="none" stroke="#28a5bc" stroke-linecap="round" stroke-linejoin="round" stroke-width="3"/>
    <path id="Pfad_426" data-name="Pfad 426" d="M450.894,339.693l-5.267-5.471,13.167-14.234v-1.958a.78.78,0,0,0-.756-.8H397.555a.78.78,0,0,0-.757.8v35.493a.78.78,0,0,0,.757.8h60.482a.78.78,0,0,0,.756-.8v-22.37Z" transform="translate(-0.227 0.157)" fill="none" stroke="#28a5bc" stroke-linecap="round" stroke-linejoin="round" stroke-width="3"/>
    <path id="Pfad_427" data-name="Pfad 427" d="M450.666,339.8l-5.267-5.471,17.963-19.418a6.045,6.045,0,0,0-5.183-3.045h-61.22a6.313,6.313,0,0,0-6.122,6.487v35.063a6.313,6.313,0,0,0,6.122,6.487h61.22a6.312,6.312,0,0,0,6.122-6.487V325.056Z" transform="translate(0 0.054)" fill="none" stroke="#28a5bc" stroke-linecap="round" stroke-linejoin="round" stroke-width="3"/>
  </g>
</svg>
