<svg xmlns="http://www.w3.org/2000/svg" width="71.269" height="71.157" viewBox="0 0 71.269 71.157">
  <g id="Gruppe_264" data-name="Gruppe 264" transform="translate(-445.656 -169.992)">
    <path id="Pfad_391" data-name="Pfad 391" d="M520.86,222.459c0-12.353-11.975-22.368-26.745-22.368s-26.745,10.015-26.745,22.368,11.974,22.369,26.745,22.369a31.093,31.093,0,0,0,11.1-2.019l-.005,0,9.134,4.527V237.081h0A20.3,20.3,0,0,0,520.86,222.459Z" transform="translate(-5.435 -7.689)" fill="none" stroke="#28a5bc" stroke-linecap="round" stroke-linejoin="round" stroke-width="3"/>
    <path id="Pfad_392" data-name="Pfad 392" d="M464.38,205.43c4.07-7.395,12.818-12.615,23.076-13a14.468,14.468,0,0,0,.53-3.861c0-9.43-9.14-17.074-20.414-17.074s-20.415,7.645-20.415,17.074a15.5,15.5,0,0,0,4.973,11.161v7.83L459.1,204.1l0,0A23.4,23.4,0,0,0,464.38,205.43Z" fill="none" stroke="#28a5bc" stroke-linecap="round" stroke-linejoin="round" stroke-width="3"/>
    <circle id="Ellipse_115" data-name="Ellipse 115" cx="2.242" cy="2.242" r="2.242" transform="translate(477.104 213.028)" fill="#28a5bc" stroke="#28a5bc" stroke-width="1"/>
    <circle id="Ellipse_116" data-name="Ellipse 116" cx="2.242" cy="2.242" r="2.242" transform="translate(496.678 213.028)" fill="#28a5bc" stroke="#28a5bc" stroke-width="1"/>
    <circle id="Ellipse_117" data-name="Ellipse 117" cx="2.242" cy="2.242" r="2.242" transform="translate(486.891 213.028)" fill="#28a5bc" stroke="#28a5bc" stroke-width="1"/>
  </g>
</svg>
