<svg xmlns="http://www.w3.org/2000/svg" width="78.213" height="71.394" viewBox="0 0 78.213 71.394">
  <g id="Gruppe_263" data-name="Gruppe 263" transform="translate(-177.269 -462.208)">
    <path id="Pfad_96" data-name="Pfad 96" d="M250.1,504.951s-1.612,5.6-7.208,5.6h-6.924v10.528a10.444,10.444,0,0,0,3.6,6.994,10.6,10.6,0,0,0,6.833,2.112c9.959,0,10.528-9.674,10.528-9.674V508.745A6.562,6.562,0,0,1,250.1,504.951Z" transform="translate(-40.883 -29.473)" fill="none" stroke="#28a5bc" stroke-linecap="round" stroke-linejoin="round" stroke-width="3"/>
    <path id="Pfad_97" data-name="Pfad 97" d="M198.683,586v5.242l-9.955,1.707s-9.959,2.276-9.959,10.718v9.769s0,6.07,26.794,6.07,26.889-5.786,26.889-5.786v-9.674" transform="translate(0 -87.407)" fill="none" stroke="#28a5bc" stroke-linecap="round" stroke-linejoin="round" stroke-width="3"/>
    <path id="Pfad_98" data-name="Pfad 98" d="M296.008,586v5.147l9.432,1.328" transform="translate(-83.8 -87.407)" fill="none" stroke="#28a5bc" stroke-linecap="round" stroke-linejoin="round" stroke-width="3"/>
    <path id="Pfad_99" data-name="Pfad 99" d="M237.5,606.283s6.582,11.787,10.043,11.787,10.006-11.787,10.006-11.787" transform="translate(-41.978 -101.903)" fill="none" stroke="#28a5bc" stroke-linecap="round" stroke-linejoin="round" stroke-width="3"/>
    <line id="Linie_5" data-name="Linie 5" y1="6.574" transform="translate(189.657 524.514)" fill="none" stroke="#28a5bc" stroke-linecap="round" stroke-linejoin="round" stroke-width="3"/>
    <line id="Linie_6" data-name="Linie 6" y1="6.655" transform="translate(221.263 524.514)" fill="none" stroke="#28a5bc" stroke-linecap="round" stroke-linejoin="round" stroke-width="3"/>
    <path id="Pfad_100" data-name="Pfad 100" d="M222.332,489.99s-5.426-1.518-5.426-8.536v-3.6s-.929-11,12.16-13.753c11.477-2.276,15.107,6.45,15.107,6.45s4.339,1.138,4.339,4.553v6.355s-.287,8.536-5.219,8.536" transform="translate(-27.249)" fill="none" stroke="#28a5bc" stroke-linecap="round" stroke-linejoin="round" stroke-width="3"/>
    <ellipse id="Ellipse_8" data-name="Ellipse 8" cx="3.104" cy="2.034" rx="3.104" ry="2.034" transform="translate(202.89 490.659)" fill="none" stroke="#28a5bc" stroke-linecap="round" stroke-linejoin="round" stroke-width="3"/>
    <path id="Pfad_101" data-name="Pfad 101" d="M292.053,549.179s-.736,4.6-6.945,4.6" transform="translate(-76.009 -61.086)" fill="none" stroke="#28a5bc" stroke-linecap="round" stroke-linejoin="round" stroke-width="3"/>
    <path id="Pfad_102" data-name="Pfad 102" d="M344.108,534.88a16.505,16.505,0,0,0-16.361,16.646,16.782,16.782,0,0,0,2.344,8.587l0,0-1.963,7.491,7.8-1.657-.012-.012a16.069,16.069,0,0,0,8.19,2.238,16.648,16.648,0,0,0,0-33.291Z" transform="translate(-106.487 -50.865)" fill="none" stroke="#28a5bc" stroke-linecap="round" stroke-linejoin="round" stroke-width="3"/>
    <circle id="Ellipse_9" data-name="Ellipse 9" cx="2.188" cy="2.188" r="2.188" transform="translate(227.425 498.596)" fill="#28a5bc"/>
    <circle id="Ellipse_10" data-name="Ellipse 10" cx="2.188" cy="2.188" r="2.188" transform="translate(243.536 498.596)" fill="#28a5bc"/>
    <circle id="Ellipse_11" data-name="Ellipse 11" cx="2.188" cy="2.188" r="2.188" transform="translate(235.481 498.596)" fill="#28a5bc"/>
  </g>
</svg>
