<svg xmlns="http://www.w3.org/2000/svg" width="84.392" height="77.012" viewBox="0 0 84.392 77.012">
  <g id="Gruppe_36" data-name="Gruppe 36" transform="translate(-177.269 -462.207)">
    <path id="Pfad_96" data-name="Pfad 96" d="M251.259,504.951s-1.745,6.056-7.8,6.056h-7.492V522.4a11.3,11.3,0,0,0,3.9,7.568,11.471,11.471,0,0,0,7.394,2.285c10.777,0,11.393-10.469,11.393-10.469V509.057A7.1,7.1,0,0,1,251.259,504.951Z" transform="translate(-39.543 -28.507)" fill="none" stroke="#fff" stroke-linecap="round" stroke-linejoin="round" stroke-width="3"/>
    <path id="Pfad_97" data-name="Pfad 97" d="M200.319,586v5.672l-10.773,1.848s-10.777,2.463-10.777,11.6v10.572s0,6.569,28.995,6.569,29.1-6.261,29.1-6.261V605.531" transform="translate(0 -84.542)" fill="none" stroke="#fff" stroke-linecap="round" stroke-linejoin="round" stroke-width="3"/>
    <path id="Pfad_98" data-name="Pfad 98" d="M296.008,586v5.57l10.207,1.437" transform="translate(-81.053 -84.542)" fill="none" stroke="#fff" stroke-linecap="round" stroke-linejoin="round" stroke-width="3"/>
    <path id="Pfad_99" data-name="Pfad 99" d="M237.5,606.283s7.122,12.756,10.868,12.756,10.828-12.756,10.828-12.756" transform="translate(-40.602 -98.563)" fill="none" stroke="#fff" stroke-linecap="round" stroke-linejoin="round" stroke-width="3"/>
    <line id="Linie_5" data-name="Linie 5" y1="7.114" transform="translate(190.551 529.508)" fill="none" stroke="#fff" stroke-linecap="round" stroke-linejoin="round" stroke-width="3"/>
    <line id="Linie_6" data-name="Linie 6" y1="7.202" transform="translate(224.753 529.508)" fill="none" stroke="#fff" stroke-linecap="round" stroke-linejoin="round" stroke-width="3"/>
    <path id="Pfad_100" data-name="Pfad 100" d="M222.779,492.148s-5.872-1.642-5.872-9.237v-3.9S215.9,467.1,230.066,464.128c12.419-2.463,16.348,6.979,16.348,6.979s4.7,1.232,4.7,4.927v6.877s-.311,9.237-5.648,9.237" transform="translate(-26.356)" fill="none" stroke="#fff" stroke-linecap="round" stroke-linejoin="round" stroke-width="3"/>
    <ellipse id="Ellipse_8" data-name="Ellipse 8" cx="3.359" cy="2.201" rx="3.359" ry="2.201" transform="translate(204.872 492.872)" fill="none" stroke="#fff" stroke-linecap="round" stroke-linejoin="round" stroke-width="3"/>
    <path id="Pfad_101" data-name="Pfad 101" d="M292.623,549.179s-.8,4.978-7.515,4.978" transform="translate(-73.518 -59.084)" fill="none" stroke="#fff" stroke-linecap="round" stroke-linejoin="round" stroke-width="3"/>
    <path id="Pfad_102" data-name="Pfad 102" d="M345.452,534.88a17.861,17.861,0,0,0-17.7,18.013,18.161,18.161,0,0,0,2.536,9.292l0,0-2.124,8.107L336.6,568.5l-.013-.013a17.39,17.39,0,0,0,8.863,2.422,18.016,18.016,0,0,0,0-36.026Z" transform="translate(-102.996 -49.198)" fill="none" stroke="#fff" stroke-linecap="round" stroke-linejoin="round" stroke-width="3"/>
    <circle id="Ellipse_9" data-name="Ellipse 9" cx="2.367" cy="2.367" r="2.367" transform="translate(231.422 501.461)" fill="#fff"/>
    <circle id="Ellipse_10" data-name="Ellipse 10" cx="2.367" cy="2.367" r="2.367" transform="translate(248.857 501.461)" fill="#fff"/>
    <circle id="Ellipse_11" data-name="Ellipse 11" cx="2.367" cy="2.367" r="2.367" transform="translate(240.139 501.461)" fill="#fff"/>
  </g>
</svg>
