<svg xmlns="http://www.w3.org/2000/svg" width="75.477" height="74.404" viewBox="0 0 75.477 74.404">
  <g id="Gruppe_242" data-name="Gruppe 242" transform="translate(-177.601 -459.112)">
    <circle id="Ellipse_102" data-name="Ellipse 102" cx="15.501" cy="15.501" r="15.501" transform="translate(220.576 501.014)" fill="none" stroke="#28a5bc" stroke-linecap="round" stroke-linejoin="round" stroke-width="3"/>
    <path id="Pfad_336" data-name="Pfad 336" d="M277.1,537.318v11.308h9.015" transform="translate(-41.026 -32.111)" fill="none" stroke="#28a5bc" stroke-linecap="round" stroke-linejoin="round" stroke-width="3"/>
    <line id="Linie_141" data-name="Linie 141" x2="59.933" transform="translate(179.101 481.363)" fill="none" stroke="#28a5bc" stroke-linecap="round" stroke-linejoin="round" stroke-width="3"/>
    <line id="Linie_142" data-name="Linie 142" y1="9.924" transform="translate(193.236 460.612)" fill="none" stroke="#28a5bc" stroke-linecap="round" stroke-linejoin="round" stroke-width="3"/>
    <line id="Linie_143" data-name="Linie 143" y1="9.924" transform="translate(225.501 460.612)" fill="none" stroke="#28a5bc" stroke-linecap="round" stroke-linejoin="round" stroke-width="3"/>
    <line id="Linie_144" data-name="Linie 144" x2="7.604" transform="translate(199.465 492.705)" fill="none" stroke="#28a5bc" stroke-linecap="round" stroke-linejoin="round" stroke-width="3"/>
    <line id="Linie_145" data-name="Linie 145" x2="7.604" transform="translate(211.523 492.705)" fill="none" stroke="#28a5bc" stroke-linecap="round" stroke-linejoin="round" stroke-width="3"/>
    <line id="Linie_146" data-name="Linie 146" x2="7.604" transform="translate(223.582 492.705)" fill="none" stroke="#28a5bc" stroke-linecap="round" stroke-linejoin="round" stroke-width="3"/>
    <line id="Linie_147" data-name="Linie 147" x2="7.604" transform="translate(199.465 502.114)" fill="none" stroke="#28a5bc" stroke-linecap="round" stroke-linejoin="round" stroke-width="3"/>
    <line id="Linie_148" data-name="Linie 148" x2="7.604" transform="translate(211.523 502.114)" fill="none" stroke="#28a5bc" stroke-linecap="round" stroke-linejoin="round" stroke-width="3"/>
    <line id="Linie_149" data-name="Linie 149" x2="7.604" transform="translate(187.221 502.114)" fill="none" stroke="#28a5bc" stroke-linecap="round" stroke-linejoin="round" stroke-width="3"/>
    <line id="Linie_150" data-name="Linie 150" x2="7.604" transform="translate(199.465 510.861)" fill="none" stroke="#28a5bc" stroke-linecap="round" stroke-linejoin="round" stroke-width="3"/>
    <line id="Linie_151" data-name="Linie 151" x2="7.604" transform="translate(187.221 510.861)" fill="none" stroke="#28a5bc" stroke-linecap="round" stroke-linejoin="round" stroke-width="3"/>
    <path id="Pfad_337" data-name="Pfad 337" d="M220.576,520.228a15.5,15.5,0,0,1,18.973-15.106V476.088a6.608,6.608,0,0,0-6.608-6.608H185.709a6.608,6.608,0,0,0-6.608,6.608v42.979a6.608,6.608,0,0,0,6.608,6.609h35.854A15.475,15.475,0,0,1,220.576,520.228Z" transform="translate(0 -3.712)" fill="none" stroke="#28a5bc" stroke-linecap="round" stroke-linejoin="round" stroke-width="3"/>
  </g>
</svg>
