<svg id="Komponente_29_8_Hover-Zustand_" data-name="Komponente 29 – 8 (Hover-Zustand)" xmlns="http://www.w3.org/2000/svg" width="59" height="59" viewBox="0 0 59 59">
  <circle id="Ellipse_32" data-name="Ellipse 32" cx="29.5" cy="29.5" r="29.5" fill="#fff"/>
  <path id="Icon_feather-twitter" data-name="Icon feather-twitter" d="M31.192,4.5a14.711,14.711,0,0,1-4.238,2.065,6.046,6.046,0,0,0-10.608,4.049v1.35A14.387,14.387,0,0,1,4.2,5.848s-5.4,12.147,6.748,17.545a15.71,15.71,0,0,1-9.447,2.7c12.147,6.748,26.993,0,26.993-15.521a6.073,6.073,0,0,0-.108-1.12A10.419,10.419,0,0,0,31.192,4.5Z" transform="translate(13.154 12.906)" fill="none" stroke="#28a5bc" stroke-linecap="round" stroke-linejoin="round" stroke-width="2"/>
</svg>
