<svg xmlns="http://www.w3.org/2000/svg" width="66.773" height="65.816" viewBox="0 0 66.773 65.816">
  <g id="Gruppe_255" data-name="Gruppe 255" transform="translate(-376.361 -611.084)">
    <path id="Pfad_368" data-name="Pfad 368" d="M447.417,662.289V648.822l-15.443-5.742-15.443,5.742v13.468s-.753,6.78,7.345,12.241l8.1,5.461,8.1-5.461C448.171,669.069,447.417,662.289,447.417,662.289Z" transform="translate(-5.818 -4.59)" fill="none" stroke="#28a5bc" stroke-linecap="round" stroke-linejoin="round" stroke-width="3"/>
    <path id="Pfad_369" data-name="Pfad 369" d="M425.4,664.806" transform="translate(-7.156 -7.861)" fill="none" stroke="#28a5bc" stroke-linecap="round" stroke-linejoin="round" stroke-width="3"/>
    <path id="Pfad_370" data-name="Pfad 370" d="M425.957,663.536l5.65,4.131,9.228-11.3" transform="translate(-7.24 -6.591)" fill="none" stroke="#28a5bc" stroke-linecap="round" stroke-linejoin="round" stroke-width="3"/>
    <path id="Pfad_309" data-name="Pfad 309" d="M429.353,632.44l-14.869-14.868h-1.248v13.192a2.917,2.917,0,0,0,2.917,2.917h13.2Z" transform="translate(-5.325 -0.751)" fill="none" stroke="#28a5bc" stroke-linecap="round" stroke-linejoin="round" stroke-width="3"/>
    <path id="Pfad_371" data-name="Pfad 371" d="M418.059,670.691c-8.1-5.461-7.345-12.241-7.345-12.241V644.982l13.315-4.95v-7.591l-14.87-14.869H382.942a5.08,5.08,0,0,0-5.081,5.078v44.3a5.08,5.08,0,0,0,5.08,5.079h36.007a5.093,5.093,0,0,0,.959-.093Z" transform="translate(0 -0.751)" fill="none" stroke="#28a5bc" stroke-linecap="round" stroke-linejoin="round" stroke-width="3"/>
    <line id="Linie_154" data-name="Linie 154" x2="18.173" transform="translate(383.595 623.224)" fill="none" stroke="#28a5bc" stroke-linecap="round" stroke-linejoin="round" stroke-width="3"/>
    <line id="Linie_155" data-name="Linie 155" x2="28.06" transform="translate(383.595 638.49)" fill="none" stroke="#28a5bc" stroke-linecap="round" stroke-linejoin="round" stroke-width="3"/>
    <line id="Linie_156" data-name="Linie 156" x2="28.06" transform="translate(383.595 643.843)" fill="none" stroke="#28a5bc" stroke-linecap="round" stroke-linejoin="round" stroke-width="3"/>
    <line id="Linie_157" data-name="Linie 157" x2="26.648" transform="translate(383.595 649.196)" fill="none" stroke="#28a5bc" stroke-linecap="round" stroke-linejoin="round" stroke-width="3"/>
    <line id="Linie_158" data-name="Linie 158" x2="12.618" transform="translate(383.595 654.549)" fill="none" stroke="#28a5bc" stroke-linecap="round" stroke-linejoin="round" stroke-width="3"/>
    <line id="Linie_159" data-name="Linie 159" x2="8.851" transform="translate(401.392 654.549)" fill="none" stroke="#28a5bc" stroke-linecap="round" stroke-linejoin="round" stroke-width="3"/>
    <line id="Linie_160" data-name="Linie 160" x2="26.648" transform="translate(383.595 659.902)" fill="none" stroke="#28a5bc" stroke-linecap="round" stroke-linejoin="round" stroke-width="3"/>
    <path id="Pfad_372" data-name="Pfad 372" d="M431.562,612.584H391.383a2.227,2.227,0,0,0-2.227,2.227v2.011h21.7l14.87,14.869v7.591l2.128-.792,5.933,2.206V614.811A2.227,2.227,0,0,0,431.562,612.584Z" transform="translate(-1.7)" fill="none" stroke="#28a5bc" stroke-linecap="round" stroke-linejoin="round" stroke-width="3"/>
  </g>
</svg>
