<svg xmlns="http://www.w3.org/2000/svg" width="64.42" height="61.537" viewBox="0 0 64.42 61.537">
  <g id="Gruppe_30" data-name="Gruppe 30" transform="translate(-181.153 -182.022)">
    <path id="Pfad_89" data-name="Pfad 89" d="M237.7,183.522H189.03a6.376,6.376,0,0,0-6.377,6.376V222.07a6.377,6.377,0,0,0,6.377,6.377h6.885v13.612l15.9-13.612H237.7a6.377,6.377,0,0,0,6.377-6.377V189.9A6.376,6.376,0,0,0,237.7,183.522Z" transform="translate(0)" fill="none" stroke="#fff" stroke-linecap="round" stroke-linejoin="round" stroke-width="3"/>
    <path id="Pfad_90" data-name="Pfad 90" d="M259.765,235.9v-5.148H240.89c-2.745,0-2.516,8.923-2.516,8.923s-.229,8.923,2.516,8.923h18.875v-5.148l8.007,5.148V230.749Z" transform="translate(-39.828 -33.76)" fill="none" stroke="#fff" stroke-linecap="round" stroke-linejoin="round" stroke-width="3"/>
  </g>
</svg>
