<svg xmlns="http://www.w3.org/2000/svg" width="62.218" height="59.438" viewBox="0 0 62.218 59.438">
  <g id="Gruppe_202" data-name="Gruppe 202" transform="translate(-117.814 -228.819)">
    <path id="Pfad_89" data-name="Pfad 89" d="M172.385,230.319H125.462a6.149,6.149,0,0,0-6.148,6.148v31.018a6.148,6.148,0,0,0,6.148,6.148H132.1v13.124l15.33-13.124h24.954a6.148,6.148,0,0,0,6.148-6.148V236.467A6.148,6.148,0,0,0,172.385,230.319Z" fill="none" stroke="#28a5bc" stroke-linecap="round" stroke-linejoin="round" stroke-width="3"/>
    <path id="Pfad_90" data-name="Pfad 90" d="M155.264,248.266V243.3h-18.2c-2.647,0-2.426,8.6-2.426,8.6s-.221,8.6,2.426,8.6h18.2V255.54l7.72,4.963V243.3Z" fill="none" stroke="#28a5bc" stroke-linecap="round" stroke-linejoin="round" stroke-width="3"/>
  </g>
</svg>
