<svg xmlns="http://www.w3.org/2000/svg" width="54.325" height="61.627" viewBox="0 0 54.325 61.627">
  <g id="Gruppe_44" data-name="Gruppe 44" transform="translate(-144.399 -418.953)">
    <path id="Pfad_114" data-name="Pfad 114" d="M184.833,562.357h14.884s5.081.718,5.081-5.081V528.894H155.784v28.228s-.513,5.235,5.235,5.235h13.96" transform="translate(-7.573 -83.322)" fill="none" stroke="#28a5bc" stroke-linecap="round" stroke-linejoin="round" stroke-width="3"/>
    <circle id="Ellipse_15" data-name="Ellipse 15" cx="1.103" cy="1.103" r="1.103" transform="translate(171.608 477.96)" fill="#28a5bc"/>
    <line id="Linie_19" data-name="Linie 19" x2="49.025" transform="translate(148.199 456.35)" fill="none" stroke="#28a5bc" stroke-linecap="round" stroke-linejoin="round" stroke-width="3"/>
    <line id="Linie_20" data-name="Linie 20" x1="6.235" y2="10.778" transform="translate(155.551 445.572)" fill="none" stroke="#28a5bc" stroke-linecap="round" stroke-linejoin="round" stroke-width="3"/>
    <line id="Linie_21" data-name="Linie 21" x1="6.235" y2="10.778" transform="translate(164.643 445.572)" fill="none" stroke="#28a5bc" stroke-linecap="round" stroke-linejoin="round" stroke-width="3"/>
    <line id="Linie_22" data-name="Linie 22" x1="6.235" y2="10.778" transform="translate(173.815 445.572)" fill="none" stroke="#28a5bc" stroke-linecap="round" stroke-linejoin="round" stroke-width="3"/>
    <line id="Linie_23" data-name="Linie 23" x1="6.235" y2="10.778" transform="translate(183.253 445.572)" fill="none" stroke="#28a5bc" stroke-linecap="round" stroke-linejoin="round" stroke-width="3"/>
    <path id="Pfad_115" data-name="Pfad 115" d="M148.18,445.458l46.79-14.49-2.006-6.477a5.7,5.7,0,0,0-7.136-3.761l-35.892,11.115a5.7,5.7,0,0,0-3.761,7.136Z" transform="translate(0 0)" fill="none" stroke="#28a5bc" stroke-linecap="round" stroke-linejoin="round" stroke-width="3"/>
    <line id="Linie_24" data-name="Linie 24" x1="9.51" y1="9.207" transform="translate(151.885 432.175)" fill="none" stroke="#28a5bc" stroke-linecap="round" stroke-linejoin="round" stroke-width="3"/>
    <line id="Linie_25" data-name="Linie 25" x1="9.51" y1="9.207" transform="translate(160.541 429.391)" fill="none" stroke="#28a5bc" stroke-linecap="round" stroke-linejoin="round" stroke-width="3"/>
    <line id="Linie_26" data-name="Linie 26" x1="9.51" y1="9.207" transform="translate(169.272 426.584)" fill="none" stroke="#28a5bc" stroke-linecap="round" stroke-linejoin="round" stroke-width="3"/>
    <line id="Linie_27" data-name="Linie 27" x1="9.51" y1="9.207" transform="translate(178.257 423.694)" fill="none" stroke="#28a5bc" stroke-linecap="round" stroke-linejoin="round" stroke-width="3"/>
    <path id="Pfad_116" data-name="Pfad 116" d="M246.8,599.393v11.394l9.663-5.7Z" transform="translate(-77.527 -137.5)" fill="none" stroke="#28a5bc" stroke-linecap="round" stroke-linejoin="round" stroke-width="3"/>
  </g>
</svg>
