<svg xmlns="http://www.w3.org/2000/svg" width="81.928" height="57.817" viewBox="0 0 81.928 57.817">
  <g id="Gruppe_229" data-name="Gruppe 229" transform="translate(-159.506 -358.677)">
    <rect id="Rechteck_155" data-name="Rechteck 155" width="62.799" height="38.147" transform="translate(161.006 360.176)" fill="none" stroke="#28a5bc" stroke-linecap="round" stroke-linejoin="round" stroke-width="3"/>
    <line id="Linie_107" data-name="Linie 107" x2="16.54" transform="translate(199.037 371.289)" fill="none" stroke="#28a5bc" stroke-linecap="round" stroke-linejoin="round" stroke-width="3"/>
    <line id="Linie_108" data-name="Linie 108" x2="16.54" transform="translate(199.037 387.54)" fill="none" stroke="#28a5bc" stroke-linecap="round" stroke-linejoin="round" stroke-width="3"/>
    <line id="Linie_109" data-name="Linie 109" x2="16.54" transform="translate(199.037 379.415)" fill="none" stroke="#28a5bc" stroke-linecap="round" stroke-linejoin="round" stroke-width="3"/>
    <circle id="Ellipse_93" data-name="Ellipse 93" cx="5.303" cy="5.303" r="5.303" transform="translate(174.94 367.014)" fill="none" stroke="#28a5bc" stroke-linecap="round" stroke-linejoin="round" stroke-width="3"/>
    <path id="Pfad_313" data-name="Pfad 313" d="M198.615,409.409a11.224,11.224,0,0,0-22.264,0Z" transform="translate(-7.312 -18.794)" fill="none" stroke="#28a5bc" stroke-linecap="round" stroke-linejoin="round" stroke-width="3"/>
    <line id="Linie_110" data-name="Linie 110" x2="32.628" transform="translate(186.438 405.662)" fill="none" stroke="#28a5bc" stroke-linecap="round" stroke-linejoin="round" stroke-width="3"/>
    <line id="Linie_111" data-name="Linie 111" x2="9.11" transform="translate(225.01 405.662)" fill="none" stroke="#28a5bc" stroke-linecap="round" stroke-linejoin="round" stroke-width="3"/>
    <path id="Pfad_314" data-name="Pfad 314" d="M250.851,392.018H238.486v17.714a3.764,3.764,0,0,1-3.764,3.764H191.816V426.4a3.763,3.763,0,0,0,3.764,3.763h55.271a3.764,3.764,0,0,0,3.764-3.763v-30.62A3.764,3.764,0,0,0,250.851,392.018Z" transform="translate(-14.681 -15.172)" fill="none" stroke="#28a5bc" stroke-linecap="round" stroke-linejoin="round" stroke-width="3"/>
  </g>
</svg>
