<svg xmlns="http://www.w3.org/2000/svg" width="69.433" height="58.26" viewBox="0 0 69.433 58.26">
  <g id="Gruppe_256" data-name="Gruppe 256" transform="translate(-254.93 -612.441)">
    <circle id="Ellipse_110" data-name="Ellipse 110" cx="5.27" cy="5.27" r="5.27" transform="translate(284.377 613.942)" fill="none" stroke="#28a5bc" stroke-linecap="round" stroke-linejoin="round" stroke-width="3"/>
    <line id="Linie_161" data-name="Linie 161" y2="43.906" transform="translate(289.646 624.481)" fill="none" stroke="#28a5bc" stroke-linecap="round" stroke-linejoin="round" stroke-width="3"/>
    <path id="Pfad_373" data-name="Pfad 373" d="M268.275,664.787a11.36,11.36,0,0,0,11.359-11.359H256.916A11.359,11.359,0,0,0,268.275,664.787Z" transform="translate(0 -7.749)" fill="none" stroke="#28a5bc" stroke-linecap="round" stroke-linejoin="round" stroke-width="3"/>
    <path id="Pfad_374" data-name="Pfad 374" d="M256.916,646.965,268.943,620.5h15.433" transform="translate(0 -1.287)" fill="none" stroke="#28a5bc" stroke-linecap="round" stroke-linejoin="round" stroke-width="3"/>
    <line id="Linie_162" data-name="Linie 162" x1="10.691" y1="26.467" transform="translate(268.943 619.211)" fill="none" stroke="#28a5bc" stroke-linecap="round" stroke-linejoin="round" stroke-width="3"/>
    <line id="Linie_163" data-name="Linie 163" x2="22.986" transform="translate(278.153 669.201)" fill="none" stroke="#28a5bc" stroke-linecap="round" stroke-linejoin="round" stroke-width="3"/>
    <path id="Pfad_375" data-name="Pfad 375" d="M321.453,664.787a11.36,11.36,0,0,1-11.359-11.359h22.719A11.359,11.359,0,0,1,321.453,664.787Z" transform="translate(-10.436 -7.749)" fill="none" stroke="#28a5bc" stroke-linecap="round" stroke-linejoin="round" stroke-width="3"/>
    <path id="Pfad_376" data-name="Pfad 376" d="M331.655,646.965,319.628,620.5H304.194" transform="translate(-9.279 -1.287)" fill="none" stroke="#28a5bc" stroke-linecap="round" stroke-linejoin="round" stroke-width="3"/>
    <line id="Linie_164" data-name="Linie 164" y1="26.467" x2="10.691" transform="translate(299.658 619.211)" fill="none" stroke="#28a5bc" stroke-linecap="round" stroke-linejoin="round" stroke-width="3"/>
  </g>
</svg>
