<svg xmlns="http://www.w3.org/2000/svg" width="63.614" height="72.533" viewBox="0 0 63.614 72.533">
  <g id="Gruppe_208" data-name="Gruppe 208" transform="translate(-265.228 -281.092)">
    <path id="Pfad_279" data-name="Pfad 279" d="M327.1,351.035l-3.813-18.547a11.209,11.209,0,0,0-10.625-8.834H281.4a11.2,11.2,0,0,0-10.623,8.834l-3.813,18.547a10.623,10.623,0,0,0,8.265,12.544h0a10.622,10.622,0,0,0,12.544-8.265l2.141-10.415h14.232l2.141,10.415a10.622,10.622,0,0,0,12.544,8.265h0A10.623,10.623,0,0,0,327.1,351.035Z" transform="translate(0 -11.695)" fill="none" stroke="#28a5bc" stroke-linecap="round" stroke-linejoin="round" stroke-width="3"/>
    <path id="Pfad_280" data-name="Pfad 280" d="M303.822,282.592v6.659s.317,2.746,2.745,2.746h8.295s2.829.476,2.829,2.829-2.937,2.937-2.937,2.937H294.567a3.667,3.667,0,0,0-3.989,3.989,3.776,3.776,0,0,0,4.054,4.054h6.277s2.928.53,2.928,2.927v3.225" transform="translate(-6.787)" fill="none" stroke="#28a5bc" stroke-linecap="round" stroke-linejoin="round" stroke-width="3"/>
    <circle id="Ellipse_82" data-name="Ellipse 82" cx="4.255" cy="4.255" r="4.255" transform="translate(279.536 320.445)" fill="none" stroke="#28a5bc" stroke-linecap="round" stroke-linejoin="round" stroke-width="3"/>
    <path id="Pfad_281" data-name="Pfad 281" d="M329.725,336.465h-1.209V335.2a2.505,2.505,0,1,0-5.011,0v1.264H322.3a2.5,2.5,0,0,0-2.5,2.505h0a2.5,2.5,0,0,0,2.5,2.5h1.209v1.154a2.505,2.505,0,0,0,5.011,0v-1.154h1.209a2.5,2.5,0,0,0,2.505-2.5h0A2.5,2.5,0,0,0,329.725,336.465Z" transform="translate(-15.107 -14.27)" fill="none" stroke="#28a5bc" stroke-linecap="round" stroke-linejoin="round" stroke-width="3"/>
  </g>
</svg>
