<svg xmlns="http://www.w3.org/2000/svg" width="59.349" height="64.544" viewBox="0 0 59.349 64.544">
  <g id="Gruppe_210" data-name="Gruppe 210" transform="translate(-402.972 -387.727)">
    <path id="Pfad_240" data-name="Pfad 240" d="M415.2,393.849a40.478,40.478,0,0,1,37.84.144" transform="translate(-1.332)" fill="none" stroke="#28a5bc" stroke-linecap="round" stroke-linejoin="round" stroke-width="3"/>
    <path id="Pfad_241" data-name="Pfad 241" d="M405.063,411.757a32.457,32.457,0,0,1,7.221-7.366,34.091,34.091,0,0,1,21.087-6.355,34.562,34.562,0,0,1,15.6,4.189,33.465,33.465,0,0,1,11.265,10.254" transform="translate(0 -1.155)" fill="none" stroke="#28a5bc" stroke-linecap="round" stroke-linejoin="round" stroke-width="3"/>
    <path id="Pfad_242" data-name="Pfad 242" d="M410.509,442.648a26.238,26.238,0,0,1-2.455-11.7,25.2,25.2,0,0,1,6.355-16.321c6.753-7.395,15.843-7.943,18.92-7.944a24.85,24.85,0,0,1,15.454,5.055,24.056,24.056,0,0,1,8.088,11.843c1.095,3.426,2.415,7.558.144,10.976a9.415,9.415,0,0,1-6.5,3.756c-2.317.262-5.75-.245-7.51-2.6a9.845,9.845,0,0,1-1.445-3.755c-.57-2.349-.148-2.818-.578-4.189a7.876,7.876,0,0,0-5.344-4.91,8.826,8.826,0,0,0-6.932,1.3,9.1,9.1,0,0,0-2.964,2.648c-2.545,3.674-1.184,8.42-.581,10.52a20.513,20.513,0,0,0,4.268,7.629,25.328,25.328,0,0,0,13.287,7.8" transform="translate(-0.392 -2.293)" fill="none" stroke="#28a5bc" stroke-linecap="round" stroke-linejoin="round" stroke-width="3"/>
    <path id="Pfad_243" data-name="Pfad 243" d="M450.867,431.415a16.239,16.239,0,0,0-1.156-5.055,17.286,17.286,0,0,0-12.854-10.4,16.869,16.869,0,0,0-11.7,2.311,17.254,17.254,0,0,0-7.221,10.254c-1.763,6.47.625,11.892,1.877,14.732a27.853,27.853,0,0,0,7.655,10.109" transform="translate(-1.609 -3.482)" fill="none" stroke="#28a5bc" stroke-linecap="round" stroke-linejoin="round" stroke-width="3"/>
    <path id="Pfad_244" data-name="Pfad 244" d="M436.654,433.954a21.588,21.588,0,0,0,1.011,4.91c.581,1.753,2,6.035,5.488,8.665,5.528,4.169,13,1.738,13.865,1.445" transform="translate(-4.15 -5.876)" fill="none" stroke="#28a5bc" stroke-linecap="round" stroke-linejoin="round" stroke-width="3"/>
  </g>
</svg>
