<svg xmlns="http://www.w3.org/2000/svg" width="39.567" height="69.91" viewBox="0 0 39.567 69.91">
  <path id="Pfad_414" data-name="Pfad 414" d="M409.195,232.958a6.184,6.184,0,0,0-6.183,6.183v11.688a6.162,6.162,0,0,0-7.417,1.273,6.161,6.161,0,0,0-9.068,0,6.176,6.176,0,0,0-10.716,4.194v6.852a6.322,6.322,0,0,0,.06.82v13.887a19.712,19.712,0,0,0,7.23,15.273v8.09a1.65,1.65,0,0,0,1.649,1.649h22.538a1.65,1.65,0,0,0,1.649-1.649v-8.8a19.681,19.681,0,0,0,6.439-14.561V239.141A6.184,6.184,0,0,0,409.195,232.958Zm-2.884,6.183a2.884,2.884,0,1,1,5.769,0v30.65l-5.769-2.482h0l-1.2-.518.009-.013a6.174,6.174,0,0,0,.852-1.641c.008-.02.015-.04.022-.06a6.046,6.046,0,0,0,.213-.859c.01-.055.018-.109.025-.164a6.156,6.156,0,0,0,.074-.906V239.141Zm-6.182,14.271a2.888,2.888,0,0,1,2.883,2.884v6.852a2.791,2.791,0,0,1-.076.633c-.01.047-.03.09-.042.135a2.821,2.821,0,0,1-.173.467c-.015.033-.034.064-.052.1a2.915,2.915,0,0,1-.3.455l-.032.038a2.922,2.922,0,0,1-.437.428h0l-3.587-1.553a6.223,6.223,0,0,0-1.036-.338,2.819,2.819,0,0,1-.037-.363V256.3A2.888,2.888,0,0,1,400.128,253.412Zm-9.068,0a2.889,2.889,0,0,1,2.884,2.884v7.358a6.168,6.168,0,0,0-3.759,3.412c-.043.1-.074.2-.111.3-.044-.017-.093-.024-.136-.043a2.889,2.889,0,0,1-1.763-2.656V256.3A2.889,2.889,0,0,1,391.061,253.412ZM379.11,256.3a2.884,2.884,0,1,1,5.768,0v6.852a2.876,2.876,0,0,1-3.446,2.826c-.051-.01-.1-.03-.148-.043a2.853,2.853,0,0,1-.364-.113c-.08-.032-.154-.075-.23-.113s-.151-.076-.221-.121a2.966,2.966,0,0,1-.287-.212c-.035-.029-.071-.056-.106-.087a2.922,2.922,0,0,1-.3-.323l-.023-.028a2.9,2.9,0,0,1-.592-1.4c0-.019-.01-.034-.012-.052a2.775,2.775,0,0,1-.034-.332Zm26.53,43.273H386.4v-4.252a19.665,19.665,0,0,0,19.239-.456Zm1.62-10.078a16.454,16.454,0,0,1-28.089-11.635v-9.212a6.17,6.17,0,0,0,2.036.631l.052.008a5.72,5.72,0,0,0,1.714-.037c.047-.008.1-.013.142-.022a6.027,6.027,0,0,0,.9-.239c.04-.013.079-.029.119-.043a6.158,6.158,0,0,0,1.712-.964,6.206,6.206,0,0,0,.961,1.167l.027.025a6.216,6.216,0,0,0,.522.438l.081.062a6.679,6.679,0,0,0,.579.375l.032.019a6.2,6.2,0,0,0,.666.322l.093.034q.282.111.575.192c.068.02.137.036.207.054s.144.041.218.055A6.163,6.163,0,0,0,393.4,275.2l8.624,3.733a1.643,1.643,0,0,0,.787.207,1.657,1.657,0,0,0,.57-3.214l-8.671-3.753a2.884,2.884,0,1,1,2.292-5.294l13.1,5.67,1.977.837v4.473A16.4,16.4,0,0,1,407.259,289.491Z" transform="translate(-375.811 -232.958)" fill="#28a5bc"/>
</svg>
